<svg width="369" height="549" viewBox="0 0 369 549" fill="none" xmlns="http://www.w3.org/2000/svg">
<g filter="url(#filter0_d_29_22)">
<path fill-rule="evenodd" clip-rule="evenodd" d="M278.06 188.967C278.121 188.332 278.148 188 278.148 188C278.148 188 278.222 188.222 278.357 188.653C278.284 188.729 278.185 188.834 278.06 188.967ZM278.019 189.383C278.034 189.233 278.048 189.094 278.06 188.967C278.039 188.989 278.017 189.013 277.994 189.037C277.998 189.012 278 189 278 189C278 189 277.976 189.036 277.928 189.107C271.417 195.978 210.666 259.342 162.46 282.5C153.107 286.993 144.881 290.881 137.597 294.323C105.159 309.653 91.3923 316.159 79.9597 328C65.9597 342.5 39.4597 380.5 54.4597 425.5C69.4597 470.5 86.9597 475.5 86.9597 475.5C86.9597 475.5 86.9738 475.428 87.0018 475.289C87.1535 475.748 87.3789 475.832 87.6724 475.5C88.3753 474.706 89.4039 473.441 90.6811 471.871C98.077 462.781 113.808 443.445 122.884 445.803C101.077 503.081 123 526 123 526C123 526 132 505.5 140.5 505.5C147.82 505.5 154.399 511.063 156.084 512.607C166.877 533.108 183.5 540.5 183.5 540.5C183.5 540.5 222.573 476.535 241 377C241 377 240.561 377.345 239.752 378.016C257.499 358.049 276.965 335.519 284.648 293.5C293.932 242.721 280.786 196.547 278.483 189.058C278.495 188.695 278.5 188.505 278.5 188.5C278.498 188.502 278.45 188.554 278.357 188.653C278.364 188.676 278.371 188.699 278.379 188.723C278.298 188.872 278.177 189.094 278.019 189.383ZM277.927 190.273C277.962 189.942 277.993 189.645 278.019 189.383C277.981 189.454 277.94 189.528 277.897 189.606C277.949 189.305 277.981 189.112 277.994 189.037C277.972 189.059 277.95 189.083 277.928 189.107C275.535 192.63 214.203 282.532 156 327C100.208 369.626 84.6382 468.129 87.0018 475.289C87.7488 471.56 98.3702 419.346 113 390.5C131.557 353.91 162.46 328 162.46 328C162.46 328 209.46 289.5 227.46 269.5C244.028 251.09 273.341 197.942 277.897 189.606C277.832 189.986 277.735 190.54 277.606 191.252C272.671 206.228 248.085 277.991 223.5 299C196 322.5 145 388 123 445.5L122.884 445.803C123.093 445.857 123.298 445.922 123.5 446C133.728 420.824 146.012 404.526 161.343 384.186L161.344 384.185C165.499 378.673 169.878 372.863 174.5 366.5C188.91 346.662 205.437 328.153 219.566 312.328L219.566 312.328C230.52 300.061 240.032 289.408 246 281C265.503 253.525 275.562 202.543 277.606 191.252C277.725 190.893 277.832 190.566 277.927 190.273ZM278.403 188.803C278.31 189.094 278.15 189.59 277.927 190.273C276.442 204.299 266.613 280.013 223.648 327.5C218.11 333.621 212.952 339.219 208.148 344.433L208.146 344.435C171.75 383.938 155.657 401.405 148.148 457.5C145.539 476.991 147.862 492.337 152.336 504.245C153.495 507.951 154.811 510.419 155.648 511.765C155.792 512.048 155.938 512.328 156.084 512.607C156.355 512.856 156.5 513 156.5 513C156.5 513 156.166 512.597 155.648 511.765C154.456 509.427 153.342 506.923 152.336 504.245C148.394 491.643 146.271 464.731 171 419C193.416 377.547 206.968 361.739 220.575 345.869C229.124 335.897 237.695 325.9 248.5 309.5C275.12 269.094 278.24 196.149 278.483 189.058C278.455 188.967 278.428 188.882 278.403 188.803ZM278.403 188.803C278.466 188.608 278.498 188.505 278.5 188.5C278.497 188.505 278.456 188.58 278.379 188.723C278.387 188.749 278.395 188.775 278.403 188.803ZM239.752 378.016C239.403 378.408 239.055 378.799 238.708 379.19C233.385 385.175 228.242 390.957 223.648 397C221.607 399.684 219.321 402.541 216.884 405.587C195.259 432.618 161.798 474.443 183.5 540.5C183.5 540.5 160.967 499.399 181.5 453.5C199.854 412.472 232.937 383.667 239.752 378.016Z" fill="black"/>
</g>
<g filter="url(#filter1_d_29_22)">
<path d="M134.5 220C102 208 83 175.5 83 175.5C83 175.5 76.5 204.5 83 241C89.5 277.5 112 289 112 289C112 289 151.5 271.5 186.5 252.5C221.5 233.5 246 209 246 209C246 209 167 232 134.5 220Z" fill="black"/>
</g>
<g filter="url(#filter2_d_29_22)">
<path d="M120.5 178C132.299 185.997 157 178 157 178C157 178 146.584 162.283 136.5 155.5C126.712 148.916 107 144 107 144C107 144 108.674 169.985 120.5 178Z" fill="black"/>
</g>
<g filter="url(#filter3_d_29_22)">
<path d="M238.5 178C226.701 185.997 202 178 202 178C202 178 212.416 162.283 222.5 155.5C232.288 148.916 252 144 252 144C252 144 250.326 169.985 238.5 178Z" fill="black"/>
</g>
<g filter="url(#filter4_d_29_22)">
<path fill-rule="evenodd" clip-rule="evenodd" d="M279.221 184C279.221 184 267.756 139.27 257.317 130.312C252.29 125.999 242.98 122.235 242.98 122.235V83.7511C242.98 83.7511 268.468 99.4299 279.221 118.91C289.974 138.389 279.221 184 279.221 184ZM83.2791 179.249C83.2791 179.249 94.7438 134.518 105.183 125.561C110.21 121.248 119.52 117.484 119.52 117.484V79C119.52 79 94.032 94.6787 83.2791 114.158C72.5262 133.638 83.2791 179.249 83.2791 179.249Z" fill="black"/>
</g>
<g filter="url(#filter5_df_29_22)">
<path d="M212.353 146.038C192.008 156.703 182.32 195 182.32 195C182.32 195 162.944 153.934 143.084 146.038C123.224 138.142 99.4884 130.525 72.3623 103.863C45.2361 77.2005 30.2198 44.236 6 4C6 4 78.175 74.4692 81.5658 77.2005C84.9566 79.9318 105.786 89.8046 105.786 89.8046C105.786 89.8046 130.974 59.264 182.32 59.264C233.666 59.264 255.464 83.0178 255.464 83.0178C255.464 83.0178 279.199 70.4137 285.497 66.0508C291.794 61.6878 363 4 363 4C363 4 315.529 70.4137 285.497 103.863C255.464 137.312 232.697 135.373 212.353 146.038Z" fill="white"/>
</g>
<g filter="url(#filter6_df_29_22)">
<path fill-rule="evenodd" clip-rule="evenodd" d="M302 14C302 14 287.606 61.0735 274.5 70.5001C268.189 75.0392 256.5 79.0001 256.5 79.0001V119.5C256.5 119.5 288.5 103 302 82.5C315.5 62 302 14 302 14ZM56 19C56 19 70.3936 66.0735 83.5 75.5001C89.811 80.0392 101.5 84.0001 101.5 84.0001V124.5C101.5 124.5 69.5 108 56 87.5C42.5 67 56 19 56 19Z" fill="black"/>
</g>
<path fill-rule="evenodd" clip-rule="evenodd" d="M302.5 19C302.5 19 288.106 66.0735 275 75.5001C268.689 80.0392 257 84.0001 257 84.0001V124.5C257 124.5 289 108 302.5 87.5C316 67 302.5 19 302.5 19ZM56.5 24C56.5 24 70.8936 71.0735 84 80.5001C90.311 85.0392 102 89.0001 102 89.0001V129.5C102 129.5 70 113 56.5 92.5C43 72 56.5 24 56.5 24Z" fill="black"/>
<path d="M213 148.5C192 159.5 182 199 182 199C182 199 162 156.644 141.5 148.5C121 140.356 96.5 132.5 68.5 105C40.5 77.5 25 43.5 0 2C0 2 74.5 74.6829 78 77.5C81.5 80.3171 103 90.5 103 90.5C103 90.5 129 59 182 59C235 59 257.5 83.5 257.5 83.5C257.5 83.5 282 70.5 288.5 66C295 61.5 368.5 2 368.5 2C368.5 2 319.5 70.5 288.5 105C257.5 139.5 234 137.5 213 148.5Z" fill="black"/>
<defs>
<filter id="filter0_d_29_22" x="46" y="188" width="245.927" height="360.5" filterUnits="userSpaceOnUse" color-interpolation-filters="sRGB">
<feFlood flood-opacity="0" result="BackgroundImageFix"/>
<feColorMatrix in="SourceAlpha" type="matrix" values="0 0 0 0 0 0 0 0 0 0 0 0 0 0 0 0 0 0 127 0" result="hardAlpha"/>
<feOffset dy="4"/>
<feGaussianBlur stdDeviation="2"/>
<feComposite in2="hardAlpha" operator="out"/>
<feColorMatrix type="matrix" values="0 0 0 0 0 0 0 0 0 0 0 0 0 0 0 0 0 0 0.25 0"/>
<feBlend mode="normal" in2="BackgroundImageFix" result="effect1_dropShadow_29_22"/>
<feBlend mode="normal" in="SourceGraphic" in2="effect1_dropShadow_29_22" result="shape"/>
</filter>
<filter id="filter1_d_29_22" x="76.1111" y="175.5" width="173.889" height="121.5" filterUnits="userSpaceOnUse" color-interpolation-filters="sRGB">
<feFlood flood-opacity="0" result="BackgroundImageFix"/>
<feColorMatrix in="SourceAlpha" type="matrix" values="0 0 0 0 0 0 0 0 0 0 0 0 0 0 0 0 0 0 127 0" result="hardAlpha"/>
<feOffset dy="4"/>
<feGaussianBlur stdDeviation="2"/>
<feComposite in2="hardAlpha" operator="out"/>
<feColorMatrix type="matrix" values="0 0 0 0 0 0 0 0 0 0 0 0 0 0 0 0 0 0 0.25 0"/>
<feBlend mode="normal" in2="BackgroundImageFix" result="effect1_dropShadow_29_22"/>
<feBlend mode="normal" in="SourceGraphic" in2="effect1_dropShadow_29_22" result="shape"/>
</filter>
<filter id="filter2_d_29_22" x="103" y="144" width="58" height="45.5543" filterUnits="userSpaceOnUse" color-interpolation-filters="sRGB">
<feFlood flood-opacity="0" result="BackgroundImageFix"/>
<feColorMatrix in="SourceAlpha" type="matrix" values="0 0 0 0 0 0 0 0 0 0 0 0 0 0 0 0 0 0 127 0" result="hardAlpha"/>
<feOffset dy="4"/>
<feGaussianBlur stdDeviation="2"/>
<feComposite in2="hardAlpha" operator="out"/>
<feColorMatrix type="matrix" values="0 0 0 0 0 0 0 0 0 0 0 0 0 0 0 0 0 0 0.25 0"/>
<feBlend mode="normal" in2="BackgroundImageFix" result="effect1_dropShadow_29_22"/>
<feBlend mode="normal" in="SourceGraphic" in2="effect1_dropShadow_29_22" result="shape"/>
</filter>
<filter id="filter3_d_29_22" x="198" y="144" width="58" height="45.5543" filterUnits="userSpaceOnUse" color-interpolation-filters="sRGB">
<feFlood flood-opacity="0" result="BackgroundImageFix"/>
<feColorMatrix in="SourceAlpha" type="matrix" values="0 0 0 0 0 0 0 0 0 0 0 0 0 0 0 0 0 0 127 0" result="hardAlpha"/>
<feOffset dy="4"/>
<feGaussianBlur stdDeviation="2"/>
<feComposite in2="hardAlpha" operator="out"/>
<feColorMatrix type="matrix" values="0 0 0 0 0 0 0 0 0 0 0 0 0 0 0 0 0 0 0.25 0"/>
<feBlend mode="normal" in2="BackgroundImageFix" result="effect1_dropShadow_29_22"/>
<feBlend mode="normal" in="SourceGraphic" in2="effect1_dropShadow_29_22" result="shape"/>
</filter>
<filter id="filter4_d_29_22" x="74.5" y="79" width="213.5" height="113" filterUnits="userSpaceOnUse" color-interpolation-filters="sRGB">
<feFlood flood-opacity="0" result="BackgroundImageFix"/>
<feColorMatrix in="SourceAlpha" type="matrix" values="0 0 0 0 0 0 0 0 0 0 0 0 0 0 0 0 0 0 127 0" result="hardAlpha"/>
<feOffset dy="4"/>
<feGaussianBlur stdDeviation="2"/>
<feComposite in2="hardAlpha" operator="out"/>
<feColorMatrix type="matrix" values="0 0 0 0 0 0 0 0 0 0 0 0 0 0 0 0 0 0 0.25 0"/>
<feBlend mode="normal" in2="BackgroundImageFix" result="effect1_dropShadow_29_22"/>
<feBlend mode="normal" in="SourceGraphic" in2="effect1_dropShadow_29_22" result="shape"/>
</filter>
<filter id="filter5_df_29_22" x="2" y="0" width="365" height="203" filterUnits="userSpaceOnUse" color-interpolation-filters="sRGB">
<feFlood flood-opacity="0" result="BackgroundImageFix"/>
<feColorMatrix in="SourceAlpha" type="matrix" values="0 0 0 0 0 0 0 0 0 0 0 0 0 0 0 0 0 0 127 0" result="hardAlpha"/>
<feOffset dy="4"/>
<feGaussianBlur stdDeviation="2"/>
<feComposite in2="hardAlpha" operator="out"/>
<feColorMatrix type="matrix" values="0 0 0 0 0 0 0 0 0 0 0 0 0 0 0 0 0 0 0.25 0"/>
<feBlend mode="normal" in2="BackgroundImageFix" result="effect1_dropShadow_29_22"/>
<feBlend mode="normal" in="SourceGraphic" in2="effect1_dropShadow_29_22" result="shape"/>
<feGaussianBlur stdDeviation="2" result="effect2_foregroundBlur_29_22"/>
</filter>
<filter id="filter6_df_29_22" x="46" y="10" width="266" height="122.5" filterUnits="userSpaceOnUse" color-interpolation-filters="sRGB">
<feFlood flood-opacity="0" result="BackgroundImageFix"/>
<feColorMatrix in="SourceAlpha" type="matrix" values="0 0 0 0 0 0 0 0 0 0 0 0 0 0 0 0 0 0 127 0" result="hardAlpha"/>
<feOffset dy="4"/>
<feGaussianBlur stdDeviation="2"/>
<feComposite in2="hardAlpha" operator="out"/>
<feColorMatrix type="matrix" values="0 0 0 0 0 0 0 0 0 0 0 0 0 0 0 0 0 0 0.25 0"/>
<feBlend mode="normal" in2="BackgroundImageFix" result="effect1_dropShadow_29_22"/>
<feBlend mode="normal" in="SourceGraphic" in2="effect1_dropShadow_29_22" result="shape"/>
<feGaussianBlur stdDeviation="2" result="effect2_foregroundBlur_29_22"/>
</filter>
</defs>
</svg>
