<svg width="100%" height="100%" class="scale-100" viewBox="0 0 1060 318" fill="none" xmlns="http://www.w3.org/2000/svg">
<g filter="url(#filter0_b_311_62)">
<path d="M99.327 193.404C119.998 162.694 123.044 111.802 123.044 111.802C123.044 111.802 130.289 141.05 125.873 173.515C121.457 205.98 108.095 218.557 99.327 234.058C90.5591 249.56 71.3469 275.006 81.8555 318C81.8555 318 62.7719 306.593 66.471 269.448C70.17 232.304 78.656 224.114 99.327 193.404Z" fill="#666666"/>
</g>
<g filter="url(#filter1_b_311_62)">
<path d="M81.8554 318C81.8554 318 98.8592 280.583 106.878 222.359C106.878 222.359 89.9203 240.259 80.985 267.109C72.0497 293.958 81.8554 318 81.8554 318Z" fill="#515151"/>
</g>
<g filter="url(#filter2_b_311_62)">
<path d="M110.142 182.875C122.327 158.014 123.197 112.095 123.197 112.095C123.197 112.095 111.23 162.986 99.2626 176.733C87.2952 190.479 65.101 228.794 55.5271 262.429C45.9531 296.064 55.527 309.518 55.527 309.518C55.527 309.518 59.4437 297.527 63.1427 297.527C66.8417 297.527 70.1056 301.914 70.1056 301.914C70.1056 301.914 60.5316 286.412 76.4157 246.928C92.2997 207.443 97.957 207.735 110.142 182.875Z" fill="#818181"/>
</g>
<g filter="url(#filter3_b_311_62)">
<path d="M55.7446 262.721C61.402 244.003 68.5051 233.674 77.9388 216.217C89.0708 195.617 103.107 177.465 109.054 166.203C118.636 148.058 122.98 112.387 122.98 112.387C122.98 112.387 95.7253 166.577 69.8879 193.111C44.0506 219.646 38.0353 283.195 40.1532 279.978C42.2711 276.76 51.1851 260.363 55.7446 262.721Z" fill="#A4A4A4"/>
</g>
<g filter="url(#filter4_b_311_62)">
<path d="M51.1753 230.256C59.2509 208.853 72.6991 193.697 72.6991 193.697C72.6991 193.697 93.1525 171.176 100.986 159.476C108.819 147.777 123.197 112.095 123.197 112.095C123.197 112.095 94.8933 152.749 72.6991 167.081C50.505 181.412 42.8893 185.215 36.7968 193.697C30.7043 202.178 19.1721 224.407 25.6997 250.73C32.2274 277.053 39.8431 279.978 39.8431 279.978C39.8431 279.978 44.5705 247.761 51.1753 230.256Z" fill="#C8C8C8"/>
</g>
<path d="M60.5316 130.521C46.3883 123.502 38.1199 104.49 38.1199 104.49C38.1199 104.49 35.2912 121.454 38.1199 142.805C40.9485 164.156 50.7401 170.883 50.7401 170.883C50.7401 170.883 67.9296 160.646 83.1609 149.532C98.3922 138.418 109.054 124.086 109.054 124.086C109.054 124.086 74.6749 137.541 60.5316 130.521Z" fill="#C8C8C8"/>
<path d="M54.4391 105.953C59.5739 110.631 70.3231 105.953 70.3231 105.953C70.3231 105.953 65.7904 96.7588 61.4019 92.791C57.1422 88.9396 48.5641 86.064 48.5641 86.064C48.5641 86.064 49.2927 101.264 54.4391 105.953Z" fill="#666666"/>
<path d="M105.79 105.953C100.655 110.631 89.9062 105.953 89.9062 105.953C89.9062 105.953 94.4388 96.7588 98.8273 92.791C103.087 88.9396 111.665 86.064 111.665 86.064C111.665 86.064 110.937 101.264 105.79 105.953Z" fill="#666666"/>
<path fill-rule="evenodd" clip-rule="evenodd" d="M123.511 109.462C123.511 109.462 118.522 83.2969 113.979 78.0572C111.791 75.5342 107.74 73.3325 107.74 73.3325V50.821C107.74 50.821 118.832 59.9924 123.511 71.3872C128.191 82.7819 123.511 109.462 123.511 109.462ZM38.2413 106.683C38.2413 106.683 43.2305 80.5178 47.7735 75.278C49.9611 72.755 54.0128 70.5534 54.0128 70.5534V48.0418C54.0128 48.0418 42.9208 57.2132 38.2413 68.608C33.5619 80.0028 38.2413 106.683 38.2413 106.683Z" fill="#C8C8C8"/>
<g filter="url(#filter5_f_311_62)">
<path d="M94.4114 87.2562C85.5579 93.4947 81.3419 115.897 81.3419 115.897C81.3419 115.897 72.9099 91.8749 64.2672 87.2562C55.6244 82.6375 45.2952 78.1819 33.4905 62.5855C21.6857 46.9891 15.151 27.7062 4.61099 4.1698C4.61099 4.1698 36.0201 45.3914 37.4957 46.9891C38.9713 48.5867 48.0356 54.3619 48.0356 54.3619C48.0356 54.3619 58.9972 36.4969 81.3419 36.4969C103.687 36.4969 113.173 50.3919 113.173 50.3919C113.173 50.3919 123.502 43.0191 126.242 40.4669C128.983 37.9148 159.97 4.1698 159.97 4.1698C159.97 4.1698 139.312 43.0191 126.242 62.5855C113.173 82.1519 103.265 81.0176 94.4114 87.2562Z" fill="#635050"/>
</g>
<g filter="url(#filter6_f_311_62)">
<path fill-rule="evenodd" clip-rule="evenodd" d="M133.424 10.0194C133.424 10.0194 127.16 37.5555 121.457 43.0697C118.71 45.7249 113.623 48.0418 113.623 48.0418V71.7326C113.623 71.7326 127.549 62.0807 133.424 50.0891C139.299 38.0974 133.424 10.0194 133.424 10.0194ZM26.37 12.9442C26.37 12.9442 32.6339 40.4803 38.3375 45.9945C41.0839 48.6497 46.1707 50.9666 46.1707 50.9666V74.6574C46.1707 74.6574 32.245 65.0056 26.37 53.0139C20.4951 41.0223 26.37 12.9442 26.37 12.9442Z" fill="#635050"/>
</g>
<path fill-rule="evenodd" clip-rule="evenodd" d="M133.642 12.9442C133.642 12.9442 127.378 40.4803 121.674 45.9945C118.928 48.6497 113.841 50.9666 113.841 50.9666V74.6574C113.841 74.6574 127.767 65.0056 133.642 53.0139C139.517 41.0223 133.642 12.9442 133.642 12.9442ZM26.5877 15.8689C26.5877 15.8689 32.8515 43.405 38.5551 48.9192C41.3015 51.5744 46.3883 53.8913 46.3883 53.8913V77.5821C46.3883 77.5821 32.4626 67.9302 26.5877 55.9386C20.7128 43.9469 26.5877 15.8689 26.5877 15.8689Z" fill="#C8C8C8"/>
<path d="M94.6932 88.6964C85.5544 95.131 81.2026 118.237 81.2026 118.237C81.2026 118.237 72.4991 93.4602 63.5779 88.6964C54.6567 83.9326 43.9948 79.3371 31.8098 63.2507C19.6248 47.1644 12.8795 27.2758 2 3C2 3 34.4209 45.5165 35.944 47.1644C37.4671 48.8122 46.8235 54.7688 46.8235 54.7688C46.8235 54.7688 58.1381 36.3426 81.2026 36.3426C104.267 36.3426 114.059 50.6741 114.059 50.6741C114.059 50.6741 124.721 43.0697 127.549 40.4373C130.378 37.805 162.364 3 162.364 3C162.364 3 141.04 43.0697 127.549 63.2507C114.059 83.4318 103.832 82.2619 94.6932 88.6964Z" fill="#C8C8C8"/>
<path d="M195 218L207 215V86H184C184 94.1333 181.8 101.933 177.4 109.4C175.533 112.467 173.4 115 171 117H165V81H282V117H276C273.467 115 271.267 112.467 269.4 109.4C265.133 102.2 263 94.4 263 86H240V215L252 218V221H195V218ZM323.992 224C312.126 224 302.992 221.467 296.592 216.4C290.192 211.333 286.992 204.867 286.992 197C286.992 191.8 288.126 186.667 290.392 181.6C291.326 179.2 292.526 177 293.992 175C299.459 173.667 305.392 172.467 311.792 171.4C326.192 169 338.926 167.533 349.992 167V161C349.992 146.2 348.192 136 344.592 130.4C340.992 124.8 335.459 122 327.992 122C325.192 122 322.792 122.333 320.792 123L317.992 124V154L315.392 154.6C313.259 154.867 311.459 155 309.992 155C305.459 155 301.792 153.667 298.992 151C296.326 148.2 294.992 144.533 294.992 140C294.992 133.867 298.059 128.667 304.192 124.4C310.459 120.133 319.726 118 331.992 118C342.392 118 351.326 119.867 358.792 123.6C366.392 127.2 372.126 132.267 375.992 138.8C379.992 145.2 381.992 152.6 381.992 161V215L393.992 218V221H375.992C367.992 221 361.792 218.533 357.392 213.6C355.526 211.6 354.059 209.067 352.992 206C351.126 209.333 348.926 212.333 346.392 215C340.392 221 332.926 224 323.992 224ZM331.992 217C336.926 217 341.392 214.333 345.392 209C346.859 207 348.392 204.333 349.992 201V172C343.859 172 337.992 172.333 332.392 173C328.259 173.533 325.459 173.867 323.992 174C323.326 175.467 322.659 177.467 321.992 180C320.659 185.067 319.992 190.067 319.992 195C319.992 202.467 321.126 208 323.392 211.6C325.659 215.2 328.526 217 331.992 217ZM406.086 218L418.086 215V87L406.086 84V81H432.086C444.086 81 450.086 87 450.086 99V169L487.086 130L472.086 124V121H510.086V124L494.086 130L471.086 154L510.086 215L520.086 218V221H494.086C487.686 221 482.486 219.6 478.486 216.8C474.486 214 470.686 209.733 467.086 204L450.086 177V215L462.086 218V221H406.086V218ZM563.055 224C551.188 224 542.055 221.467 535.655 216.4C529.255 211.333 526.055 204.867 526.055 197C526.055 191.8 527.188 186.667 529.455 181.6C530.388 179.2 531.588 177 533.055 175C538.521 173.667 544.455 172.467 550.855 171.4C565.255 169 577.988 167.533 589.055 167V161C589.055 146.2 587.255 136 583.655 130.4C580.055 124.8 574.521 122 567.055 122C564.255 122 561.855 122.333 559.855 123L557.055 124V154L554.455 154.6C552.321 154.867 550.521 155 549.055 155C544.521 155 540.855 153.667 538.055 151C535.388 148.2 534.055 144.533 534.055 140C534.055 133.867 537.121 128.667 543.255 124.4C549.521 120.133 558.788 118 571.055 118C581.455 118 590.388 119.867 597.855 123.6C605.455 127.2 611.188 132.267 615.055 138.8C619.055 145.2 621.055 152.6 621.055 161V215L633.055 218V221H615.055C607.055 221 600.855 218.533 596.455 213.6C594.588 211.6 593.121 209.067 592.055 206C590.188 209.333 587.988 212.333 585.455 215C579.455 221 571.988 224 563.055 224ZM571.055 217C575.988 217 580.455 214.333 584.455 209C585.921 207 587.455 204.333 589.055 201V172C582.921 172 577.055 172.333 571.455 173C567.321 173.533 564.521 173.867 563.055 174C562.388 175.467 561.721 177.467 561.055 180C559.721 185.067 559.055 190.067 559.055 195C559.055 202.467 560.188 208 562.455 211.6C564.721 215.2 567.588 217 571.055 217ZM686.148 224C678.282 224 671.282 222 665.148 218C659.015 213.867 654.148 207.867 650.548 200C646.948 192 645.148 182.333 645.148 171C645.148 153.933 649.082 140.867 656.948 131.8C664.948 122.6 675.682 118 689.148 118C695.548 118 701.148 119.333 705.948 122C707.948 122.933 710.015 124.267 712.148 126V87L700.148 84V81H726.148C738.148 81 744.148 87 744.148 99V215L756.148 218V221H738.148C730.148 221 723.948 218.533 719.548 213.6C717.682 211.6 716.215 209.067 715.148 206C713.415 209.333 711.215 212.333 708.548 215C702.548 221 695.082 224 686.148 224ZM694.148 217C699.082 217 703.548 214.333 707.548 209C709.015 207 710.548 204.333 712.148 201V132C710.682 130.533 709.148 129.2 707.548 128C703.948 125.333 700.482 124 697.148 124C691.415 124 686.948 127.333 683.748 134C680.682 140.667 679.148 153 679.148 171C679.148 188.2 680.548 200.2 683.348 207C686.282 213.667 689.882 217 694.148 217ZM808.172 224C796.305 224 787.172 221.467 780.772 216.4C774.372 211.333 771.172 204.867 771.172 197C771.172 191.8 772.305 186.667 774.572 181.6C775.505 179.2 776.705 177 778.172 175C783.639 173.667 789.572 172.467 795.972 171.4C810.372 169 823.105 167.533 834.172 167V161C834.172 146.2 832.372 136 828.772 130.4C825.172 124.8 819.639 122 812.172 122C809.372 122 806.972 122.333 804.972 123L802.172 124V154L799.572 154.6C797.439 154.867 795.639 155 794.172 155C789.639 155 785.972 153.667 783.172 151C780.505 148.2 779.172 144.533 779.172 140C779.172 133.867 782.239 128.667 788.372 124.4C794.639 120.133 803.905 118 816.172 118C826.572 118 835.505 119.867 842.972 123.6C850.572 127.2 856.305 132.267 860.172 138.8C864.172 145.2 866.172 152.6 866.172 161V215L878.172 218V221H860.172C852.172 221 845.972 218.533 841.572 213.6C839.705 211.6 838.239 209.067 837.172 206C835.305 209.333 833.105 212.333 830.572 215C824.572 221 817.105 224 808.172 224ZM816.172 217C821.105 217 825.572 214.333 829.572 209C831.039 207 832.572 204.333 834.172 201V172C828.039 172 822.172 172.333 816.572 173C812.439 173.533 809.639 173.867 808.172 174C807.505 175.467 806.839 177.467 806.172 180C804.839 185.067 804.172 190.067 804.172 195C804.172 202.467 805.305 208 807.572 211.6C809.839 215.2 812.705 217 816.172 217ZM890.266 218L902.266 215V87L890.266 84V81H916.266C928.266 81 934.266 87 934.266 99V131C936.266 128.333 938.332 126.2 940.466 124.6C946.199 120.2 952.799 118 960.266 118C967.732 118 974.399 119.6 980.266 122.8C986.266 125.867 990.932 129.933 994.266 135C997.599 140.067 999.266 145.4 999.266 151V215L1011.27 218V221H985.266C973.266 221 967.266 215 967.266 203V151C967.266 142.6 965.732 136.2 962.666 131.8C959.732 127.267 956.266 125 952.266 125C947.199 125 942.666 127.667 938.666 133C936.932 135.267 935.466 137.933 934.266 141V215L946.266 218V221H890.266V218Z" fill="#F7F7F7"/>
<defs>
<filter id="filter0_b_311_62" x="61.9952" y="107.802" width="69.3047" height="214.198" filterUnits="userSpaceOnUse" color-interpolation-filters="sRGB">
<feFlood flood-opacity="0" result="BackgroundImageFix"/>
<feGaussianBlur in="BackgroundImageFix" stdDeviation="2"/>
<feComposite in2="SourceAlpha" operator="in" result="effect1_backgroundBlur_311_62"/>
<feBlend mode="normal" in="SourceGraphic" in2="effect1_backgroundBlur_311_62" result="shape"/>
</filter>
<filter id="filter1_b_311_62" x="73.2275" y="218.359" width="37.6507" height="103.641" filterUnits="userSpaceOnUse" color-interpolation-filters="sRGB">
<feFlood flood-opacity="0" result="BackgroundImageFix"/>
<feGaussianBlur in="BackgroundImageFix" stdDeviation="2"/>
<feComposite in2="SourceAlpha" operator="in" result="effect1_backgroundBlur_311_62"/>
<feBlend mode="normal" in="SourceGraphic" in2="effect1_backgroundBlur_311_62" result="shape"/>
</filter>
<filter id="filter2_b_311_62" x="47.272" y="108.095" width="79.9255" height="205.423" filterUnits="userSpaceOnUse" color-interpolation-filters="sRGB">
<feFlood flood-opacity="0" result="BackgroundImageFix"/>
<feGaussianBlur in="BackgroundImageFix" stdDeviation="2"/>
<feComposite in2="SourceAlpha" operator="in" result="effect1_backgroundBlur_311_62"/>
<feBlend mode="normal" in="SourceGraphic" in2="effect1_backgroundBlur_311_62" result="shape"/>
</filter>
<filter id="filter3_b_311_62" x="35.7623" y="108.387" width="91.2175" height="175.708" filterUnits="userSpaceOnUse" color-interpolation-filters="sRGB">
<feFlood flood-opacity="0" result="BackgroundImageFix"/>
<feGaussianBlur in="BackgroundImageFix" stdDeviation="2"/>
<feComposite in2="SourceAlpha" operator="in" result="effect1_backgroundBlur_311_62"/>
<feBlend mode="normal" in="SourceGraphic" in2="effect1_backgroundBlur_311_62" result="shape"/>
</filter>
<filter id="filter4_b_311_62" x="19.759" y="108.095" width="107.438" height="175.883" filterUnits="userSpaceOnUse" color-interpolation-filters="sRGB">
<feFlood flood-opacity="0" result="BackgroundImageFix"/>
<feGaussianBlur in="BackgroundImageFix" stdDeviation="2"/>
<feComposite in2="SourceAlpha" operator="in" result="effect1_backgroundBlur_311_62"/>
<feBlend mode="normal" in="SourceGraphic" in2="effect1_backgroundBlur_311_62" result="shape"/>
</filter>
<filter id="filter5_f_311_62" x="0.610992" y="0.1698" width="163.359" height="119.727" filterUnits="userSpaceOnUse" color-interpolation-filters="sRGB">
<feFlood flood-opacity="0" result="BackgroundImageFix"/>
<feBlend mode="normal" in="SourceGraphic" in2="BackgroundImageFix" result="shape"/>
<feGaussianBlur stdDeviation="2" result="effect1_foregroundBlur_311_62"/>
</filter>
<filter id="filter6_f_311_62" x="19.759" y="6.01944" width="120.276" height="72.6379" filterUnits="userSpaceOnUse" color-interpolation-filters="sRGB">
<feFlood flood-opacity="0" result="BackgroundImageFix"/>
<feBlend mode="normal" in="SourceGraphic" in2="BackgroundImageFix" result="shape"/>
<feGaussianBlur stdDeviation="2" result="effect1_foregroundBlur_311_62"/>
</filter>
</defs>
</svg>
