<svg width="369" height="549" viewBox="0 0 369 549" fill="none" xmlns="http://www.w3.org/2000/svg">
<g filter="url(#filter0_d_29_2)">
<path d="M223.648 327.5C271.148 275 278.148 188 278.148 188C278.148 188 294.796 238 284.648 293.5C274.5 349 243.795 370.5 223.648 397C203.5 423.5 159.352 467 183.5 540.5C183.5 540.5 139.648 521 148.148 457.5C156.648 394 176.148 380 223.648 327.5Z" fill="#FBE2E2"/>
</g>
<g filter="url(#filter1_d_29_2)">
<path d="M183.5 540.5C183.5 540.5 222.573 476.535 241 377C241 377 202.033 407.601 181.5 453.5C160.967 499.399 183.5 540.5 183.5 540.5Z" fill="#FBE2E2"/>
</g>
<g filter="url(#filter2_d_29_2)">
<path d="M248.5 309.5C276.5 267 278.5 188.5 278.5 188.5C278.5 188.5 251 275.5 223.5 299C196 322.5 145 388 123 445.5C101 503 123 526 123 526C123 526 132 505.5 140.5 505.5C149 505.5 156.5 513 156.5 513C156.5 513 134.5 486.5 171 419C207.5 351.5 220.5 352 248.5 309.5Z" fill="#FBE2E2"/>
</g>
<g filter="url(#filter3_d_29_2)">
<path d="M123.5 446C136.5 414 152.822 396.344 174.5 366.5C200.08 331.284 232.333 300.253 246 281C268.019 249.981 278 189 278 189C278 189 215.372 281.639 156 327C96.6282 372.361 82.8057 481 87.6724 475.5C92.539 470 113.023 441.968 123.5 446Z" fill="#FBE2E2"/>
</g>
<g filter="url(#filter4_d_29_2)">
<path d="M113 390.5C131.557 353.91 162.46 328 162.46 328C162.46 328 209.46 289.5 227.46 269.5C245.46 249.5 278.5 188.5 278.5 188.5C278.5 188.5 213.46 258 162.46 282.5C111.46 307 93.9597 313.5 79.9597 328C65.9597 342.5 39.4597 380.5 54.4597 425.5C69.4597 470.5 86.9597 475.5 86.9597 475.5C86.9597 475.5 97.8229 420.425 113 390.5Z" fill="#FBE2E2"/>
</g>
<g filter="url(#filter5_d_29_2)">
<path d="M134.5 220C102 208 83 175.5 83 175.5C83 175.5 76.5 204.5 83 241C89.5 277.5 112 289 112 289C112 289 151.5 271.5 186.5 252.5C221.5 233.5 246 209 246 209C246 209 167 232 134.5 220Z" fill="#FBE2E2"/>
</g>
<g filter="url(#filter6_d_29_2)">
<path d="M120.5 178C132.299 185.997 157 178 157 178C157 178 146.584 162.283 136.5 155.5C126.712 148.916 107 144 107 144C107 144 108.674 169.985 120.5 178Z" fill="#FBE2E2"/>
</g>
<g filter="url(#filter7_d_29_2)">
<path d="M238.5 178C226.701 185.997 202 178 202 178C202 178 212.416 162.283 222.5 155.5C232.288 148.916 252 144 252 144C252 144 250.326 169.985 238.5 178Z" fill="#FBE2E2"/>
</g>
<g filter="url(#filter8_d_29_2)">
<path fill-rule="evenodd" clip-rule="evenodd" d="M279.221 184C279.221 184 267.756 139.27 257.317 130.312C252.29 125.999 242.98 122.235 242.98 122.235V83.7511C242.98 83.7511 268.468 99.4299 279.221 118.91C289.974 138.389 279.221 184 279.221 184ZM83.2791 179.249C83.2791 179.249 94.7438 134.518 105.183 125.561C110.21 121.248 119.52 117.484 119.52 117.484V79C119.52 79 94.032 94.6787 83.2791 114.158C72.5262 133.638 83.2791 179.249 83.2791 179.249Z" fill="#FBE2E2"/>
</g>
<g filter="url(#filter9_df_29_2)">
<path d="M212.353 146.038C192.008 156.703 182.32 195 182.32 195C182.32 195 162.944 153.934 143.084 146.038C123.224 138.142 99.4884 130.525 72.3623 103.863C45.2361 77.2005 30.2198 44.236 6 4C6 4 78.175 74.4692 81.5658 77.2005C84.9566 79.9318 105.786 89.8046 105.786 89.8046C105.786 89.8046 130.974 59.264 182.32 59.264C233.666 59.264 255.464 83.0178 255.464 83.0178C255.464 83.0178 279.199 70.4137 285.497 66.0508C291.794 61.6878 363 4 363 4C363 4 315.529 70.4137 285.497 103.863C255.464 137.312 232.697 135.373 212.353 146.038Z" fill="#635050"/>
</g>
<g filter="url(#filter10_df_29_2)">
<path fill-rule="evenodd" clip-rule="evenodd" d="M302 14C302 14 287.606 61.0735 274.5 70.5001C268.189 75.0392 256.5 79.0001 256.5 79.0001V119.5C256.5 119.5 288.5 103 302 82.5C315.5 62 302 14 302 14ZM56 19C56 19 70.3936 66.0735 83.5 75.5001C89.811 80.0392 101.5 84.0001 101.5 84.0001V124.5C101.5 124.5 69.5 108 56 87.5C42.5 67 56 19 56 19Z" fill="#FBE2E2"/>
</g>
<path fill-rule="evenodd" clip-rule="evenodd" d="M302.5 19C302.5 19 288.106 66.0735 275 75.5001C268.689 80.0392 257 84.0001 257 84.0001V124.5C257 124.5 289 108 302.5 87.5C316 67 302.5 19 302.5 19ZM56.5 24C56.5 24 70.8936 71.0735 84 80.5001C90.311 85.0392 102 89.0001 102 89.0001V129.5C102 129.5 70 113 56.5 92.5C43 72 56.5 24 56.5 24Z" fill="#FBE2E2"/>
<path d="M213 148.5C192 159.5 182 199 182 199C182 199 162 156.644 141.5 148.5C121 140.356 96.5 132.5 68.5 105C40.5 77.5 25 43.5 0 2C0 2 74.5 74.6829 78 77.5C81.5 80.3171 103 90.5 103 90.5C103 90.5 129 59 182 59C235 59 257.5 83.5 257.5 83.5C257.5 83.5 282 70.5 288.5 66C295 61.5 368.5 2 368.5 2C368.5 2 319.5 70.5 288.5 105C257.5 139.5 234 137.5 213 148.5Z" fill="#FBE2E2"/>
<defs>
<filter id="filter0_d_29_2" x="143.054" y="188" width="148.872" height="360.5" filterUnits="userSpaceOnUse" color-interpolation-filters="sRGB">
<feFlood flood-opacity="0" result="BackgroundImageFix"/>
<feColorMatrix in="SourceAlpha" type="matrix" values="0 0 0 0 0 0 0 0 0 0 0 0 0 0 0 0 0 0 127 0" result="hardAlpha"/>
<feOffset dy="4"/>
<feGaussianBlur stdDeviation="2"/>
<feComposite in2="hardAlpha" operator="out"/>
<feColorMatrix type="matrix" values="0 0 0 0 0 0 0 0 0 0 0 0 0 0 0 0 0 0 0.25 0"/>
<feBlend mode="normal" in2="BackgroundImageFix" result="effect1_dropShadow_29_2"/>
<feBlend mode="normal" in="SourceGraphic" in2="effect1_dropShadow_29_2" result="shape"/>
</filter>
<filter id="filter1_d_29_2" x="168.866" y="377" width="76.1344" height="171.5" filterUnits="userSpaceOnUse" color-interpolation-filters="sRGB">
<feFlood flood-opacity="0" result="BackgroundImageFix"/>
<feColorMatrix in="SourceAlpha" type="matrix" values="0 0 0 0 0 0 0 0 0 0 0 0 0 0 0 0 0 0 127 0" result="hardAlpha"/>
<feOffset dy="4"/>
<feGaussianBlur stdDeviation="2"/>
<feComposite in2="hardAlpha" operator="out"/>
<feColorMatrix type="matrix" values="0 0 0 0 0 0 0 0 0 0 0 0 0 0 0 0 0 0 0.25 0"/>
<feBlend mode="normal" in2="BackgroundImageFix" result="effect1_dropShadow_29_2"/>
<feBlend mode="normal" in="SourceGraphic" in2="effect1_dropShadow_29_2" result="shape"/>
</filter>
<filter id="filter2_d_29_2" x="109.222" y="188.5" width="173.278" height="345.5" filterUnits="userSpaceOnUse" color-interpolation-filters="sRGB">
<feFlood flood-opacity="0" result="BackgroundImageFix"/>
<feColorMatrix in="SourceAlpha" type="matrix" values="0 0 0 0 0 0 0 0 0 0 0 0 0 0 0 0 0 0 127 0" result="hardAlpha"/>
<feOffset dy="4"/>
<feGaussianBlur stdDeviation="2"/>
<feComposite in2="hardAlpha" operator="out"/>
<feColorMatrix type="matrix" values="0 0 0 0 0 0 0 0 0 0 0 0 0 0 0 0 0 0 0.25 0"/>
<feBlend mode="normal" in2="BackgroundImageFix" result="effect1_dropShadow_29_2"/>
<feBlend mode="normal" in="SourceGraphic" in2="effect1_dropShadow_29_2" result="shape"/>
</filter>
<filter id="filter3_d_29_2" x="82.7742" y="189" width="199.226" height="294.701" filterUnits="userSpaceOnUse" color-interpolation-filters="sRGB">
<feFlood flood-opacity="0" result="BackgroundImageFix"/>
<feColorMatrix in="SourceAlpha" type="matrix" values="0 0 0 0 0 0 0 0 0 0 0 0 0 0 0 0 0 0 127 0" result="hardAlpha"/>
<feOffset dy="4"/>
<feGaussianBlur stdDeviation="2"/>
<feComposite in2="hardAlpha" operator="out"/>
<feColorMatrix type="matrix" values="0 0 0 0 0 0 0 0 0 0 0 0 0 0 0 0 0 0 0.25 0"/>
<feBlend mode="normal" in2="BackgroundImageFix" result="effect1_dropShadow_29_2"/>
<feBlend mode="normal" in="SourceGraphic" in2="effect1_dropShadow_29_2" result="shape"/>
</filter>
<filter id="filter4_d_29_2" x="46" y="188.5" width="236.5" height="295" filterUnits="userSpaceOnUse" color-interpolation-filters="sRGB">
<feFlood flood-opacity="0" result="BackgroundImageFix"/>
<feColorMatrix in="SourceAlpha" type="matrix" values="0 0 0 0 0 0 0 0 0 0 0 0 0 0 0 0 0 0 127 0" result="hardAlpha"/>
<feOffset dy="4"/>
<feGaussianBlur stdDeviation="2"/>
<feComposite in2="hardAlpha" operator="out"/>
<feColorMatrix type="matrix" values="0 0 0 0 0 0 0 0 0 0 0 0 0 0 0 0 0 0 0.25 0"/>
<feBlend mode="normal" in2="BackgroundImageFix" result="effect1_dropShadow_29_2"/>
<feBlend mode="normal" in="SourceGraphic" in2="effect1_dropShadow_29_2" result="shape"/>
</filter>
<filter id="filter5_d_29_2" x="76.1111" y="175.5" width="173.889" height="121.5" filterUnits="userSpaceOnUse" color-interpolation-filters="sRGB">
<feFlood flood-opacity="0" result="BackgroundImageFix"/>
<feColorMatrix in="SourceAlpha" type="matrix" values="0 0 0 0 0 0 0 0 0 0 0 0 0 0 0 0 0 0 127 0" result="hardAlpha"/>
<feOffset dy="4"/>
<feGaussianBlur stdDeviation="2"/>
<feComposite in2="hardAlpha" operator="out"/>
<feColorMatrix type="matrix" values="0 0 0 0 0 0 0 0 0 0 0 0 0 0 0 0 0 0 0.25 0"/>
<feBlend mode="normal" in2="BackgroundImageFix" result="effect1_dropShadow_29_2"/>
<feBlend mode="normal" in="SourceGraphic" in2="effect1_dropShadow_29_2" result="shape"/>
</filter>
<filter id="filter6_d_29_2" x="103" y="144" width="58" height="45.5543" filterUnits="userSpaceOnUse" color-interpolation-filters="sRGB">
<feFlood flood-opacity="0" result="BackgroundImageFix"/>
<feColorMatrix in="SourceAlpha" type="matrix" values="0 0 0 0 0 0 0 0 0 0 0 0 0 0 0 0 0 0 127 0" result="hardAlpha"/>
<feOffset dy="4"/>
<feGaussianBlur stdDeviation="2"/>
<feComposite in2="hardAlpha" operator="out"/>
<feColorMatrix type="matrix" values="0 0 0 0 0 0 0 0 0 0 0 0 0 0 0 0 0 0 0.25 0"/>
<feBlend mode="normal" in2="BackgroundImageFix" result="effect1_dropShadow_29_2"/>
<feBlend mode="normal" in="SourceGraphic" in2="effect1_dropShadow_29_2" result="shape"/>
</filter>
<filter id="filter7_d_29_2" x="198" y="144" width="58" height="45.5543" filterUnits="userSpaceOnUse" color-interpolation-filters="sRGB">
<feFlood flood-opacity="0" result="BackgroundImageFix"/>
<feColorMatrix in="SourceAlpha" type="matrix" values="0 0 0 0 0 0 0 0 0 0 0 0 0 0 0 0 0 0 127 0" result="hardAlpha"/>
<feOffset dy="4"/>
<feGaussianBlur stdDeviation="2"/>
<feComposite in2="hardAlpha" operator="out"/>
<feColorMatrix type="matrix" values="0 0 0 0 0 0 0 0 0 0 0 0 0 0 0 0 0 0 0.25 0"/>
<feBlend mode="normal" in2="BackgroundImageFix" result="effect1_dropShadow_29_2"/>
<feBlend mode="normal" in="SourceGraphic" in2="effect1_dropShadow_29_2" result="shape"/>
</filter>
<filter id="filter8_d_29_2" x="74.5" y="79" width="213.5" height="113" filterUnits="userSpaceOnUse" color-interpolation-filters="sRGB">
<feFlood flood-opacity="0" result="BackgroundImageFix"/>
<feColorMatrix in="SourceAlpha" type="matrix" values="0 0 0 0 0 0 0 0 0 0 0 0 0 0 0 0 0 0 127 0" result="hardAlpha"/>
<feOffset dy="4"/>
<feGaussianBlur stdDeviation="2"/>
<feComposite in2="hardAlpha" operator="out"/>
<feColorMatrix type="matrix" values="0 0 0 0 0 0 0 0 0 0 0 0 0 0 0 0 0 0 0.25 0"/>
<feBlend mode="normal" in2="BackgroundImageFix" result="effect1_dropShadow_29_2"/>
<feBlend mode="normal" in="SourceGraphic" in2="effect1_dropShadow_29_2" result="shape"/>
</filter>
<filter id="filter9_df_29_2" x="2" y="0" width="365" height="203" filterUnits="userSpaceOnUse" color-interpolation-filters="sRGB">
<feFlood flood-opacity="0" result="BackgroundImageFix"/>
<feColorMatrix in="SourceAlpha" type="matrix" values="0 0 0 0 0 0 0 0 0 0 0 0 0 0 0 0 0 0 127 0" result="hardAlpha"/>
<feOffset dy="4"/>
<feGaussianBlur stdDeviation="2"/>
<feComposite in2="hardAlpha" operator="out"/>
<feColorMatrix type="matrix" values="0 0 0 0 0 0 0 0 0 0 0 0 0 0 0 0 0 0 0.25 0"/>
<feBlend mode="normal" in2="BackgroundImageFix" result="effect1_dropShadow_29_2"/>
<feBlend mode="normal" in="SourceGraphic" in2="effect1_dropShadow_29_2" result="shape"/>
<feGaussianBlur stdDeviation="2" result="effect2_foregroundBlur_29_2"/>
</filter>
<filter id="filter10_df_29_2" x="46" y="10" width="266" height="122.5" filterUnits="userSpaceOnUse" color-interpolation-filters="sRGB">
<feFlood flood-opacity="0" result="BackgroundImageFix"/>
<feColorMatrix in="SourceAlpha" type="matrix" values="0 0 0 0 0 0 0 0 0 0 0 0 0 0 0 0 0 0 127 0" result="hardAlpha"/>
<feOffset dy="4"/>
<feGaussianBlur stdDeviation="2"/>
<feComposite in2="hardAlpha" operator="out"/>
<feColorMatrix type="matrix" values="0 0 0 0 0 0 0 0 0 0 0 0 0 0 0 0 0 0 0.25 0"/>
<feBlend mode="normal" in2="BackgroundImageFix" result="effect1_dropShadow_29_2"/>
<feBlend mode="normal" in="SourceGraphic" in2="effect1_dropShadow_29_2" result="shape"/>
<feGaussianBlur stdDeviation="2" result="effect2_foregroundBlur_29_2"/>
</filter>
</defs>
</svg>
