<svg width="369" height="541" viewBox="0 0 369 541" fill="none" xmlns="http://www.w3.org/2000/svg">
<path d="M223.816 327.5C271.316 275 278.316 188 278.316 188C278.316 188 294.964 238 284.816 293.5C274.668 349 243.964 370.5 223.816 397C203.668 423.5 159.52 467 183.668 540.5C183.668 540.5 139.816 521 148.316 457.5C156.816 394 176.316 380 223.816 327.5Z" fill="#D9D9D9"/>
<path d="M183.668 540.5C183.668 540.5 222.741 476.535 241.168 377C241.168 377 202.201 407.601 181.668 453.5C161.136 499.399 183.668 540.5 183.668 540.5Z" fill="#646161"/>
<path d="M248.668 309.5C276.668 267 278.668 188.5 278.668 188.5C278.668 188.5 251.168 275.5 223.668 299C196.168 322.5 145.168 388 123.168 445.5C101.168 503 123.168 526 123.168 526C123.168 526 132.168 505.5 140.668 505.5C149.168 505.5 156.668 513 156.668 513C156.668 513 134.668 486.5 171.168 419C207.668 351.5 220.668 352 248.668 309.5Z" fill="#F08D8D"/>
<path d="M123.668 446C136.668 414 152.99 396.344 174.668 366.5C200.248 331.284 232.501 300.253 246.168 281C268.187 249.981 278.168 189 278.168 189C278.168 189 215.54 281.639 156.168 327C96.7963 372.361 82.9738 481 87.8405 475.5C92.7071 470 113.191 441.968 123.668 446Z" fill="#635050"/>
<path d="M113.168 390.5C131.725 353.91 162.628 328 162.628 328C162.628 328 209.628 289.5 227.628 269.5C245.628 249.5 278.668 188.5 278.668 188.5C278.668 188.5 213.628 258 162.628 282.5C111.628 307 94.1278 313.5 80.1278 328C66.1278 342.5 39.6278 380.5 54.6278 425.5C69.6278 470.5 87.1278 475.5 87.1278 475.5C87.1278 475.5 97.991 420.425 113.168 390.5Z" fill="#D9D9D9"/>
<path d="M134.668 220C102.168 208 83.1681 175.5 83.1681 175.5C83.1681 175.5 76.6681 204.5 83.1681 241C89.6681 277.5 112.168 289 112.168 289C112.168 289 151.668 271.5 186.668 252.5C221.668 233.5 246.168 209 246.168 209C246.168 209 167.168 232 134.668 220Z" fill="#FBE2E2"/>
<path d="M120.668 178C132.467 185.997 157.168 178 157.168 178C157.168 178 146.752 162.283 136.668 155.5C126.88 148.916 107.168 144 107.168 144C107.168 144 108.842 169.985 120.668 178Z" fill="#D9D9D9"/>
<path d="M238.668 178C226.869 185.997 202.168 178 202.168 178C202.168 178 212.584 162.283 222.668 155.5C232.457 148.916 252.168 144 252.168 144C252.168 144 250.494 169.985 238.668 178Z" fill="#D9D9D9"/>
<path fill-rule="evenodd" clip-rule="evenodd" d="M279.389 184C279.389 184 267.924 139.27 257.485 130.312C252.458 125.999 243.148 122.235 243.148 122.235V83.7511C243.148 83.7511 268.636 99.4299 279.389 118.91C290.142 138.389 279.389 184 279.389 184ZM83.4472 179.249C83.4472 179.249 94.9119 134.518 105.351 125.561C110.378 121.248 119.688 117.484 119.688 117.484V79C119.688 79 94.2001 94.6787 83.4472 114.158C72.6943 133.638 83.4472 179.249 83.4472 179.249Z" fill="#FBE2E2"/>
<g filter="url(#filter0_f_9_27)">
<path d="M212.521 146.038C192.176 156.703 182.488 195 182.488 195C182.488 195 163.112 153.934 143.252 146.038C123.392 138.142 99.6565 130.525 72.5303 103.863C45.4042 77.2005 30.3879 44.236 6.16809 4C6.16809 4 78.3431 74.4692 81.7339 77.2005C85.1246 79.9318 105.954 89.8046 105.954 89.8046C105.954 89.8046 131.142 59.264 182.488 59.264C233.834 59.264 255.632 83.0178 255.632 83.0178C255.632 83.0178 279.367 70.4137 285.665 66.0508C291.962 61.6878 363.168 4 363.168 4C363.168 4 315.697 70.4137 285.665 103.863C255.632 137.312 232.865 135.373 212.521 146.038Z" fill="#635050"/>
</g>
<g filter="url(#filter1_f_9_27)">
<path fill-rule="evenodd" clip-rule="evenodd" d="M302.168 14C302.168 14 287.774 61.0735 274.668 70.5001C268.357 75.0392 256.668 79.0001 256.668 79.0001V119.5C256.668 119.5 288.668 103 302.168 82.5C315.668 62 302.168 14 302.168 14ZM56.1681 19C56.1681 19 70.5617 66.0735 83.6681 75.5001C89.9791 80.0392 101.668 84.0001 101.668 84.0001V124.5C101.668 124.5 69.6681 108 56.1681 87.5C42.6681 67 56.1681 19 56.1681 19Z" fill="#635050"/>
</g>
<path fill-rule="evenodd" clip-rule="evenodd" d="M302.668 19C302.668 19 288.274 66.0735 275.168 75.5001C268.857 80.0392 257.168 84.0001 257.168 84.0001V124.5C257.168 124.5 289.168 108 302.668 87.5C316.168 67 302.668 19 302.668 19ZM56.6681 24C56.6681 24 71.0617 71.0735 84.1681 80.5001C90.4791 85.0392 102.168 89.0001 102.168 89.0001V129.5C102.168 129.5 70.1681 113 56.6681 92.5C43.1681 72 56.6681 24 56.6681 24Z" fill="#D9D9D9"/>
<path d="M213.168 148.5C192.168 159.5 182.168 199 182.168 199C182.168 199 162.168 156.644 141.668 148.5C121.168 140.356 96.6681 132.5 68.6681 105C40.6681 77.5 25.1681 43.5 0.168091 2C0.168091 2 74.6681 74.6829 78.1681 77.5C81.6681 80.3171 103.168 90.5 103.168 90.5C103.168 90.5 129.168 59 182.168 59C235.168 59 257.668 83.5 257.668 83.5C257.668 83.5 282.168 70.5 288.668 66C295.168 61.5 368.668 2 368.668 2C368.668 2 319.668 70.5 288.668 105C257.668 139.5 234.168 137.5 213.168 148.5Z" fill="#FBE2E2"/>
<defs>
<filter id="filter0_f_9_27" x="2.16809" y="0" width="365" height="199" filterUnits="userSpaceOnUse" color-interpolation-filters="sRGB">
<feFlood flood-opacity="0" result="BackgroundImageFix"/>
<feBlend mode="normal" in="SourceGraphic" in2="BackgroundImageFix" result="shape"/>
<feGaussianBlur stdDeviation="2" result="effect1_foregroundBlur_9_27"/>
</filter>
<filter id="filter1_f_9_27" x="46.1681" y="10" width="266" height="118.5" filterUnits="userSpaceOnUse" color-interpolation-filters="sRGB">
<feFlood flood-opacity="0" result="BackgroundImageFix"/>
<feBlend mode="normal" in="SourceGraphic" in2="BackgroundImageFix" result="shape"/>
<feGaussianBlur stdDeviation="2" result="effect1_foregroundBlur_9_27"/>
</filter>
</defs>
</svg>
