<svg width="100%" height="100%" class="scale-100" viewBox="0 0 445 154" fill="none" xmlns="http://www.w3.org/2000/svg">
<g filter="url(#filter0_b_304_33)">
<path d="M79.3047 87.3704C88.7144 74.8913 90.1012 54.2117 90.1012 54.2117C90.1012 54.2117 93.3991 66.0965 91.3888 79.2887C89.3785 92.4809 83.296 97.5914 79.3047 103.89C75.3134 110.189 66.5677 120.529 71.3514 138C71.3514 138 62.6643 133.365 64.3481 118.271C66.032 103.177 69.8949 99.8496 79.3047 87.3704Z" fill="#666666"/>
</g>
<g filter="url(#filter1_b_304_33)">
<path d="M71.3514 138C71.3514 138 79.0919 122.796 82.7422 99.1365C82.7422 99.1365 75.0227 106.41 70.9552 117.32C66.8877 128.23 71.3514 138 71.3514 138Z" fill="#515151"/>
</g>
<g filter="url(#filter2_b_304_33)">
<path d="M84.228 83.0919C89.7748 72.9898 90.171 54.3306 90.171 54.3306C90.171 54.3306 84.7232 75.0102 79.2754 80.5961C73.8277 86.182 63.7246 101.751 59.3664 115.419C55.0082 129.086 59.3664 134.553 59.3664 134.553C59.3664 134.553 61.1493 129.681 62.8331 129.681C64.517 129.681 66.0027 131.463 66.0027 131.463C66.0027 131.463 61.6445 125.164 68.8752 109.12C76.1059 93.0752 78.6811 93.1941 84.228 83.0919Z" fill="#818181"/>
</g>
<g filter="url(#filter3_b_304_33)">
<path d="M59.4654 115.538C62.0407 107.931 65.2741 103.734 69.5685 96.6406C74.636 88.2698 81.0253 80.8939 83.7327 76.3175C88.0946 68.9444 90.0719 54.4493 90.0719 54.4493C90.0719 54.4493 77.6652 76.4694 65.9037 87.2516C54.1421 98.0338 51.4039 123.857 52.3679 122.55C53.332 121.242 57.3898 114.579 59.4654 115.538Z" fill="#A4A4A4"/>
</g>
<g filter="url(#filter4_b_304_33)">
<path d="M57.3854 102.345C61.0615 93.6482 67.1833 87.4893 67.1833 87.4893C67.1833 87.4893 76.4941 78.338 80.0599 73.584C83.6257 68.8301 90.171 54.3306 90.171 54.3306C90.171 54.3306 77.2865 70.8505 67.1833 76.6741C57.0802 82.4977 53.6135 84.0427 50.8401 87.4893C48.0667 90.936 42.817 99.9685 45.7885 110.665C48.76 121.361 52.2268 122.55 52.2268 122.55C52.2268 122.55 54.3788 109.459 57.3854 102.345Z" fill="#C8C8C8"/>
</g>
<path d="M61.6445 61.8181C55.2062 58.9657 51.4424 51.2405 51.4424 51.2405C51.4424 51.2405 50.1547 58.1338 51.4423 66.8097C52.73 75.4857 57.1873 78.2192 57.1873 78.2192C57.1873 78.2192 65.0122 74.0595 71.9457 69.5432C78.8792 65.027 83.7327 59.2034 83.7327 59.2034C83.7327 59.2034 68.0828 64.6704 61.6445 61.8181Z" fill="#C8C8C8"/>
<path d="M58.8711 51.8347C61.2086 53.7356 66.1018 51.8347 66.1018 51.8347C66.1018 51.8347 64.0385 48.0988 62.0407 46.4865C60.1016 44.9215 56.1968 43.753 56.1968 43.753C56.1968 43.753 56.5284 49.9295 58.8711 51.8347Z" fill="#666666"/>
<path d="M82.2469 51.8347C79.9095 53.7356 75.0162 51.8347 75.0162 51.8347C75.0162 51.8347 77.0796 48.0988 79.0773 46.4865C81.0164 44.9215 84.9213 43.753 84.9213 43.753C84.9213 43.753 84.5896 49.9295 82.2469 51.8347Z" fill="#666666"/>
<path fill-rule="evenodd" clip-rule="evenodd" d="M90.3138 53.2609C90.3138 53.2609 88.0426 42.6286 85.9746 40.4995C84.9788 39.4742 83.1344 38.5796 83.1344 38.5796V29.432C83.1344 29.432 88.1836 33.1588 90.3138 37.7891C92.4439 42.4193 90.3138 53.2609 90.3138 53.2609ZM51.4976 52.1316C51.4976 52.1316 53.7687 41.4993 55.8368 39.3701C56.8326 38.3449 58.677 37.4503 58.677 37.4503V28.3027C58.677 28.3027 53.6277 32.0295 51.4976 36.6598C49.3674 41.29 51.4976 52.1316 51.4976 52.1316Z" fill="#C8C8C8"/>
<g filter="url(#filter5_f_304_33)">
<path d="M77.0671 44.2374C73.0369 46.7724 71.1177 55.8755 71.1177 55.8755C71.1177 55.8755 67.2793 46.1142 63.345 44.2374C59.4107 42.3606 54.7087 40.5501 49.335 34.2125C43.9613 27.8749 40.9866 20.0393 36.1886 10.4753C36.1886 10.4753 50.4865 27.2257 51.1582 27.8749C51.8299 28.5241 55.9562 30.8709 55.9562 30.8709C55.9562 30.8709 60.946 23.6114 71.1177 23.6114C81.2893 23.6114 85.6075 29.2577 85.6075 29.2577C85.6075 29.2577 90.3095 26.2617 91.557 25.2246C92.8044 24.1876 106.91 10.4753 106.91 10.4753C106.91 10.4753 97.5064 26.2617 91.557 34.2125C85.6075 42.1633 81.0974 41.7024 77.0671 44.2374Z" fill="#635050"/>
</g>
<g filter="url(#filter6_f_304_33)">
<path fill-rule="evenodd" clip-rule="evenodd" d="M94.8263 12.8524C94.8263 12.8524 91.9749 24.0416 89.3785 26.2823C88.1283 27.3612 85.8127 28.3027 85.8127 28.3027V37.9294C85.8127 37.9294 92.152 34.0074 94.8263 29.1346C97.5007 24.2618 94.8263 12.8524 94.8263 12.8524ZM46.0936 14.0408C46.0936 14.0408 48.945 25.2301 51.5414 27.4708C52.7916 28.5497 55.1072 29.4912 55.1072 29.4912V39.1179C55.1072 39.1179 48.768 35.1959 46.0936 30.3231C43.4193 25.4503 46.0936 14.0408 46.0936 14.0408Z" fill="#635050"/>
</g>
<path fill-rule="evenodd" clip-rule="evenodd" d="M94.9253 14.0408C94.9253 14.0408 92.0739 25.2301 89.4776 27.4708C88.2274 28.5497 85.9117 29.4912 85.9117 29.4912V39.1179C85.9117 39.1179 92.251 35.1959 94.9253 30.3231C97.5997 25.4503 94.9253 14.0408 94.9253 14.0408ZM46.1927 15.2293C46.1927 15.2293 49.0441 26.4186 51.6405 28.6592C52.8907 29.7382 55.2063 30.6797 55.2063 30.6797V40.3064C55.2063 40.3064 48.867 36.3844 46.1927 31.5116C43.5183 26.6388 46.1927 15.2293 46.1927 15.2293Z" fill="#C8C8C8"/>
<path d="M77.1954 44.8227C73.0353 47.4373 71.0543 56.8264 71.0543 56.8264C71.0543 56.8264 67.0923 46.7584 63.0312 44.8227C58.9701 42.8869 54.1167 41.0195 48.5699 34.4828C43.0231 27.9461 39.9525 19.8644 35 10C35 10 49.7585 27.2765 50.4518 27.9461C51.1452 28.6158 55.4043 31.0362 55.4043 31.0362C55.4043 31.0362 60.5549 23.5487 71.0543 23.5487C81.5536 23.5487 86.0108 29.3723 86.0108 29.3723C86.0108 29.3723 90.8643 26.2823 92.152 25.2126C93.4396 24.143 108 10 108 10C108 10 98.2931 26.2823 92.152 34.4828C86.0108 42.6834 81.3555 42.208 77.1954 44.8227Z" fill="#C8C8C8"/>
<path d="M122.2 95.04L126.04 94.08V52.8H118.68C118.68 55.4027 117.976 57.8987 116.568 60.288C115.971 61.2693 115.288 62.08 114.52 62.72H112.6V51.2H150.04V62.72H148.12C147.309 62.08 146.605 61.2693 146.008 60.288C144.643 57.984 143.96 55.488 143.96 52.8H136.6V94.08L140.44 95.04V96H122.2V95.04ZM163.478 96.96C159.68 96.96 156.758 96.1493 154.71 94.528C152.662 92.9067 151.638 90.8373 151.638 88.32C151.638 86.656 152 85.0133 152.726 83.392C153.024 82.624 153.408 81.92 153.878 81.28C155.627 80.8533 157.526 80.4693 159.574 80.128C164.182 79.36 168.256 78.8907 171.798 78.72V76.8C171.798 72.064 171.222 68.8 170.07 67.008C168.918 65.216 167.147 64.32 164.758 64.32C163.862 64.32 163.094 64.4267 162.454 64.64L161.558 64.96V74.56L160.726 74.752C160.043 74.8373 159.467 74.88 158.998 74.88C157.547 74.88 156.374 74.4533 155.478 73.6C154.624 72.704 154.198 71.5307 154.198 70.08C154.198 68.1173 155.179 66.4533 157.142 65.088C159.147 63.7227 162.112 63.04 166.038 63.04C169.366 63.04 172.224 63.6373 174.614 64.832C177.046 65.984 178.88 67.6053 180.118 69.696C181.398 71.744 182.038 74.112 182.038 76.8V94.08L185.878 95.04V96H180.118C177.558 96 175.574 95.2107 174.166 93.632C173.568 92.992 173.099 92.1813 172.758 91.2C172.16 92.2667 171.456 93.2267 170.646 94.08C168.726 96 166.336 96.96 163.478 96.96ZM166.038 94.72C167.616 94.72 169.046 93.8667 170.326 92.16C170.795 91.52 171.286 90.6667 171.798 89.6V80.32C169.835 80.32 167.958 80.4267 166.166 80.64C164.843 80.8107 163.947 80.9173 163.478 80.96C163.264 81.4293 163.051 82.0693 162.838 82.88C162.411 84.5013 162.198 86.1013 162.198 87.68C162.198 90.0693 162.56 91.84 163.286 92.992C164.011 94.144 164.928 94.72 166.038 94.72ZM189.748 95.04L193.588 94.08V53.12L189.748 52.16V51.2H198.068C201.908 51.2 203.828 53.12 203.828 56.96V79.36L215.668 66.88L210.868 64.96V64H223.028V64.96L217.908 66.88L210.548 74.56L223.028 94.08L226.228 95.04V96H217.908C215.86 96 214.196 95.552 212.916 94.656C211.636 93.76 210.42 92.3947 209.268 90.56L203.828 81.92V94.08L207.668 95.04V96H189.748V95.04ZM239.978 96.96C236.18 96.96 233.258 96.1493 231.21 94.528C229.162 92.9067 228.138 90.8373 228.138 88.32C228.138 86.656 228.5 85.0133 229.226 83.392C229.524 82.624 229.908 81.92 230.378 81.28C232.127 80.8533 234.026 80.4693 236.074 80.128C240.682 79.36 244.756 78.8907 248.298 78.72V76.8C248.298 72.064 247.722 68.8 246.57 67.008C245.418 65.216 243.647 64.32 241.258 64.32C240.362 64.32 239.594 64.4267 238.954 64.64L238.058 64.96V74.56L237.226 74.752C236.543 74.8373 235.967 74.88 235.498 74.88C234.047 74.88 232.874 74.4533 231.978 73.6C231.124 72.704 230.698 71.5307 230.698 70.08C230.698 68.1173 231.679 66.4533 233.642 65.088C235.647 63.7227 238.612 63.04 242.538 63.04C245.866 63.04 248.724 63.6373 251.114 64.832C253.546 65.984 255.38 67.6053 256.618 69.696C257.898 71.744 258.538 74.112 258.538 76.8V94.08L262.378 95.04V96H256.618C254.058 96 252.074 95.2107 250.666 93.632C250.068 92.992 249.599 92.1813 249.258 91.2C248.66 92.2667 247.956 93.2267 247.146 94.08C245.226 96 242.836 96.96 239.978 96.96ZM242.538 94.72C244.116 94.72 245.546 93.8667 246.826 92.16C247.295 91.52 247.786 90.6667 248.298 89.6V80.32C246.335 80.32 244.458 80.4267 242.666 80.64C241.343 80.8107 240.447 80.9173 239.978 80.96C239.764 81.4293 239.551 82.0693 239.338 82.88C238.911 84.5013 238.698 86.1013 238.698 87.68C238.698 90.0693 239.06 91.84 239.786 92.992C240.511 94.144 241.428 94.72 242.538 94.72ZM279.368 96.96C276.85 96.96 274.61 96.32 272.648 95.04C270.685 93.7173 269.128 91.7973 267.976 89.28C266.824 86.72 266.248 83.6267 266.248 80C266.248 74.5387 267.506 70.3573 270.024 67.456C272.584 64.512 276.018 63.04 280.328 63.04C282.376 63.04 284.168 63.4667 285.704 64.32C286.344 64.6187 287.005 65.0453 287.688 65.6V53.12L283.848 52.16V51.2H292.168C296.008 51.2 297.928 53.12 297.928 56.96V94.08L301.768 95.04V96H296.007C293.448 96 291.464 95.2107 290.056 93.632C289.458 92.992 288.989 92.1813 288.648 91.2C288.093 92.2667 287.389 93.2267 286.536 94.08C284.616 96 282.226 96.96 279.368 96.96ZM281.928 94.72C283.506 94.72 284.936 93.8667 286.216 92.16C286.685 91.52 287.176 90.6667 287.688 89.6V67.52C287.218 67.0507 286.728 66.624 286.216 66.24C285.064 65.3867 283.954 64.96 282.888 64.96C281.053 64.96 279.624 66.0267 278.6 68.16C277.618 70.2933 277.128 74.24 277.128 80C277.128 85.504 277.576 89.344 278.472 91.52C279.41 93.6533 280.562 94.72 281.928 94.72ZM318.415 96.96C314.618 96.96 311.695 96.1493 309.647 94.528C307.599 92.9067 306.575 90.8373 306.575 88.32C306.575 86.656 306.938 85.0133 307.663 83.392C307.962 82.624 308.346 81.92 308.815 81.28C310.564 80.8533 312.463 80.4693 314.511 80.128C319.119 79.36 323.194 78.8907 326.735 78.72V76.8C326.735 72.064 326.159 68.8 325.007 67.008C323.855 65.216 322.084 64.32 319.695 64.32C318.799 64.32 318.031 64.4267 317.391 64.64L316.495 64.96V74.56L315.663 74.752C314.98 74.8373 314.404 74.88 313.935 74.88C312.484 74.88 311.311 74.4533 310.415 73.6C309.562 72.704 309.135 71.5307 309.135 70.08C309.135 68.1173 310.116 66.4533 312.079 65.088C314.084 63.7227 317.05 63.04 320.975 63.04C324.303 63.04 327.162 63.6373 329.551 64.832C331.983 65.984 333.818 67.6053 335.055 69.696C336.335 71.744 336.975 74.112 336.975 76.8V94.08L340.815 95.04V96H335.055C332.495 96 330.511 95.2107 329.103 93.632C328.506 92.992 328.036 92.1813 327.695 91.2C327.098 92.2667 326.394 93.2267 325.583 94.08C323.663 96 321.274 96.96 318.415 96.96ZM320.975 94.72C322.554 94.72 323.983 93.8667 325.263 92.16C325.732 91.52 326.223 90.6667 326.735 89.6V80.32C324.772 80.32 322.895 80.4267 321.103 80.64C319.78 80.8107 318.884 80.9173 318.415 80.96C318.202 81.4293 317.988 82.0693 317.775 82.88C317.348 84.5013 317.135 86.1013 317.135 87.68C317.135 90.0693 317.498 91.84 318.223 92.992C318.948 94.144 319.866 94.72 320.975 94.72ZM344.685 95.04L348.525 94.08V53.12L344.685 52.16V51.2H353.005C356.845 51.2 358.765 53.12 358.765 56.96V67.2C359.405 66.3467 360.066 65.664 360.749 65.152C362.584 63.744 364.696 63.04 367.085 63.04C369.474 63.04 371.608 63.552 373.485 64.576C375.405 65.5573 376.898 66.8587 377.965 68.48C379.032 70.1013 379.565 71.808 379.565 73.6V94.08L383.405 95.04V96H375.085C371.245 96 369.325 94.08 369.325 90.24V73.6C369.325 70.912 368.834 68.864 367.853 67.456C366.914 66.0053 365.805 65.28 364.525 65.28C362.904 65.28 361.453 66.1333 360.173 67.84C359.618 68.5653 359.149 69.4187 358.765 70.4V94.08L362.605 95.04V96H344.685V95.04Z" fill="#515151"/>
<defs>
<filter id="filter0_b_304_33" x="60.1315" y="50.2117" width="35.9068" height="91.7883" filterUnits="userSpaceOnUse" color-interpolation-filters="sRGB">
<feFlood flood-opacity="0" result="BackgroundImageFix"/>
<feGaussianBlur in="BackgroundImageFix" stdDeviation="2"/>
<feComposite in2="SourceAlpha" operator="in" result="effect1_backgroundBlur_304_33"/>
<feBlend mode="normal" in="SourceGraphic" in2="effect1_backgroundBlur_304_33" result="shape"/>
</filter>
<filter id="filter1_b_304_33" x="65.2448" y="95.1365" width="21.4974" height="46.8635" filterUnits="userSpaceOnUse" color-interpolation-filters="sRGB">
<feFlood flood-opacity="0" result="BackgroundImageFix"/>
<feGaussianBlur in="BackgroundImageFix" stdDeviation="2"/>
<feComposite in2="SourceAlpha" operator="in" result="effect1_backgroundBlur_304_33"/>
<feBlend mode="normal" in="SourceGraphic" in2="effect1_backgroundBlur_304_33" result="shape"/>
</filter>
<filter id="filter2_b_304_33" x="53.4294" y="50.3306" width="40.7416" height="88.2228" filterUnits="userSpaceOnUse" color-interpolation-filters="sRGB">
<feFlood flood-opacity="0" result="BackgroundImageFix"/>
<feGaussianBlur in="BackgroundImageFix" stdDeviation="2"/>
<feComposite in2="SourceAlpha" operator="in" result="effect1_backgroundBlur_304_33"/>
<feBlend mode="normal" in="SourceGraphic" in2="effect1_backgroundBlur_304_33" result="shape"/>
</filter>
<filter id="filter3_b_304_33" x="48.19" y="50.4493" width="45.8819" height="76.1481" filterUnits="userSpaceOnUse" color-interpolation-filters="sRGB">
<feFlood flood-opacity="0" result="BackgroundImageFix"/>
<feGaussianBlur in="BackgroundImageFix" stdDeviation="2"/>
<feComposite in2="SourceAlpha" operator="in" result="effect1_backgroundBlur_304_33"/>
<feBlend mode="normal" in="SourceGraphic" in2="effect1_backgroundBlur_304_33" result="shape"/>
</filter>
<filter id="filter4_b_304_33" x="40.905" y="50.3306" width="53.2659" height="76.2191" filterUnits="userSpaceOnUse" color-interpolation-filters="sRGB">
<feFlood flood-opacity="0" result="BackgroundImageFix"/>
<feGaussianBlur in="BackgroundImageFix" stdDeviation="2"/>
<feComposite in2="SourceAlpha" operator="in" result="effect1_backgroundBlur_304_33"/>
<feBlend mode="normal" in="SourceGraphic" in2="effect1_backgroundBlur_304_33" result="shape"/>
</filter>
<filter id="filter5_f_304_33" x="32.1886" y="6.47534" width="78.7218" height="53.4002" filterUnits="userSpaceOnUse" color-interpolation-filters="sRGB">
<feFlood flood-opacity="0" result="BackgroundImageFix"/>
<feBlend mode="normal" in="SourceGraphic" in2="BackgroundImageFix" result="shape"/>
<feGaussianBlur stdDeviation="2" result="effect1_foregroundBlur_304_33"/>
</filter>
<filter id="filter6_f_304_33" x="40.905" y="8.85236" width="59.1099" height="34.2656" filterUnits="userSpaceOnUse" color-interpolation-filters="sRGB">
<feFlood flood-opacity="0" result="BackgroundImageFix"/>
<feBlend mode="normal" in="SourceGraphic" in2="BackgroundImageFix" result="shape"/>
<feGaussianBlur stdDeviation="2" result="effect1_foregroundBlur_304_33"/>
</filter>
</defs>
</svg>
