<?xml version="1.0" standalone="no"?>
<!DOCTYPE svg PUBLIC "-//W3C//DTD SVG 20010904//EN"
 "http://www.w3.org/TR/2001/REC-SVG-20010904/DTD/svg10.dtd">
<svg version="1.0" xmlns="http://www.w3.org/2000/svg"
 width="1082.000000pt" height="1082.000000pt" viewBox="0 0 1082.000000 1082.000000"
 preserveAspectRatio="xMidYMid meet">
<metadata>
Created by potrace 1.14, written by Peter Selinger 2001-2017
</metadata>
<g transform="translate(0.000000,1082.000000) scale(0.100000,-0.100000)"
fill="#000000" stroke="none">
<path d="M1748 10740 c11 -19 48 -81 81 -138 34 -57 61 -108 61 -113 0 -5 5
-9 10 -9 6 0 10 -4 10 -9 0 -5 23 -49 51 -98 29 -48 62 -106 74 -128 94 -166
126 -222 135 -235 5 -8 21 -35 35 -60 14 -25 38 -66 53 -91 15 -25 45 -76 67
-113 22 -38 48 -80 57 -94 10 -15 25 -40 34 -57 31 -56 253 -380 318 -465 36
-47 94 -125 128 -175 77 -110 258 -295 374 -381 22 -16 41 -31 44 -34 3 -3 22
-18 43 -34 28 -20 36 -33 31 -45 -16 -38 -43 -161 -51 -231 -6 -56 -6 -370 0
-430 3 -25 8 -79 13 -120 4 -41 8 -85 8 -97 1 -13 5 -23 9 -23 5 0 6 -4 3 -9
-4 -5 -2 -31 4 -58 5 -26 11 -61 14 -78 3 -16 9 -54 14 -83 7 -41 4 -109 -7
-139 -2 -5 -2 -7 -7 -63 -2 -30 -7 -66 -9 -80 -22 -118 -22 -600 0 -775 3 -22
7 -58 9 -80 7 -61 17 -123 32 -205 8 -41 17 -88 19 -103 3 -15 10 -38 17 -50
6 -12 11 -24 10 -27 -2 -4 21 -84 33 -120 79 -228 250 -470 422 -597 l73 -54
77 35 c43 18 110 49 148 67 39 18 72 33 75 34 5 1 78 35 287 136 66 33 126 59
132 59 6 0 11 4 11 10 0 5 3 10 8 9 15 -2 52 14 52 22 0 5 3 8 8 7 11 -3 353
170 646 325 110 59 377 215 386 226 3 4 41 30 85 58 108 71 428 307 471 348 6
5 35 30 64 55 29 25 65 56 80 70 15 14 53 47 84 75 31 27 56 53 56 58 0 4 -4
5 -10 2 -5 -3 -18 -8 -27 -10 -10 -2 -81 -20 -158 -40 -115 -30 -218 -54 -426
-100 -9 -2 -32 -6 -50 -9 -19 -3 -45 -8 -59 -11 -14 -3 -47 -10 -75 -15 -27
-5 -66 -12 -85 -16 -19 -4 -48 -8 -65 -9 -16 -1 -39 -5 -50 -8 -11 -4 -40 -9
-65 -12 -25 -3 -56 -7 -70 -9 -14 -2 -52 -7 -85 -11 -33 -3 -71 -8 -85 -11
-116 -18 -527 -26 -645 -11 -57 7 -70 9 -140 23 -115 22 -311 111 -462 209
-48 32 -90 61 -93 65 -3 4 -12 11 -21 16 -52 28 -297 263 -369 352 -19 24 -47
58 -62 75 -15 18 -28 35 -28 39 0 4 -6 13 -13 20 -32 32 -85 119 -82 135 2 10
4 18 5 18 1 0 3 10 6 22 2 12 13 48 23 80 11 32 25 78 32 103 7 25 14 50 15
55 6 19 36 110 42 125 3 8 6 17 6 20 1 5 19 53 36 95 4 11 16 43 25 70 29 84
95 227 133 288 l23 38 47 -27 c75 -44 300 -154 316 -154 7 0 19 -7 26 -15 7
-8 17 -15 24 -15 11 0 159 -58 235 -92 25 -11 52 -21 60 -23 9 -2 34 -11 56
-21 22 -10 42 -18 45 -19 32 -6 104 -51 147 -92 13 -13 24 -22 26 -20 1 1 13
-6 27 -16 13 -9 22 -17 19 -17 -3 0 30 -36 73 -80 44 -44 76 -80 72 -80 -4 0
5 -11 20 -25 14 -13 26 -28 26 -33 0 -5 14 -23 30 -40 17 -18 30 -39 30 -47 0
-9 4 -14 8 -11 5 3 17 -10 28 -28 10 -19 43 -72 73 -119 29 -47 52 -87 50 -89
-2 -2 6 -14 18 -27 20 -22 59 -92 54 -99 -1 -1 5 -10 14 -18 8 -9 15 -22 15
-30 0 -8 5 -14 10 -14 6 0 10 -9 10 -20 0 -11 4 -20 9 -20 5 0 15 -16 22 -35
14 -38 29 -46 29 -17 0 10 5 23 12 30 7 7 8 12 4 12 -5 0 -3 7 4 15 7 9 10 18
6 22 -3 3 2 15 11 26 10 10 17 20 15 21 -5 1 9 58 17 71 3 6 6 16 8 24 1 8 8
18 15 22 7 5 10 9 5 9 -4 0 -1 16 7 35 8 19 12 35 8 35 -4 0 -2 4 4 8 6 4 16
21 21 37 6 17 16 29 22 27 7 -1 10 2 6 8 -9 15 5 51 17 44 7 -4 8 -2 4 4 -6
10 65 157 83 172 3 3 13 16 21 30 52 86 77 120 92 125 10 4 17 10 15 14 -4 13
96 111 107 104 6 -3 8 -3 4 2 -12 13 99 90 135 94 4 0 15 7 23 16 9 8 22 15
30 15 8 0 22 4 32 10 33 19 174 70 198 72 13 1 24 5 24 9 0 5 60 26 100 35 3
0 12 4 20 7 8 3 42 16 75 27 100 36 180 69 281 120 40 20 77 34 83 32 14 -5
72 -85 103 -142 29 -55 98 -214 128 -295 12 -33 26 -69 30 -80 22 -50 106
-318 111 -350 1 -5 6 -21 11 -35 5 -14 11 -32 14 -40 2 -8 10 -37 17 -65 l14
-50 11 40 c6 22 13 58 16 80 2 22 7 47 10 55 6 18 16 87 41 295 17 134 22 342
12 476 -11 143 -34 235 -88 346 l-30 62 98 99 c85 85 152 158 220 238 10 12
38 45 63 74 45 53 57 67 107 129 28 34 54 64 95 113 13 15 36 46 52 68 17 22
33 40 38 40 4 0 8 4 8 10 0 11 20 37 62 81 15 16 25 29 22 29 -3 0 9 15 25 33
17 17 31 35 31 39 0 4 6 13 13 20 10 11 65 79 89 113 4 6 21 26 38 45 16 19
30 38 30 42 0 4 8 15 18 25 14 14 134 172 174 228 4 5 20 26 36 45 15 19 39
51 52 70 14 19 29 40 35 46 5 6 35 46 65 88 30 42 58 76 62 76 4 0 8 7 8 15 0
8 4 15 9 15 5 0 12 8 15 18 3 9 16 29 28 44 13 14 30 36 38 48 22 32 148 202
165 223 8 9 15 20 15 23 0 3 21 32 46 65 25 32 43 59 39 59 -3 0 -35 -23 -70
-51 -58 -45 -67 -50 -83 -38 -15 13 -16 12 -4 -3 15 -18 7 -41 -11 -35 -6 2
-22 -9 -35 -25 -14 -16 -27 -27 -30 -24 -2 3 -13 -6 -24 -19 -11 -14 -23 -23
-28 -20 -5 3 -11 -1 -13 -7 -3 -8 -6 -5 -6 6 -1 12 4 16 14 13 8 -4 17 -2 20
3 4 6 -1 10 -10 10 -9 0 -13 5 -10 10 4 6 10 8 14 6 11 -7 52 24 46 35 -4 5
-16 2 -29 -6 -12 -8 -26 -12 -30 -8 -4 5 -7 3 -6 -2 5 -24 -1 -27 -16 -9 -15
18 -15 18 -5 -3 15 -30 14 -32 -9 -28 -11 2 -18 0 -15 -6 4 -5 1 -9 -4 -9 -6
0 -11 5 -11 12 0 6 -3 8 -6 5 -4 -4 -1 -13 6 -22 11 -14 14 -13 25 1 10 15 12
14 9 -7 -1 -13 -3 -26 -3 -28 -1 -2 -7 1 -14 7 -8 7 -18 7 -27 2 -9 -5 -20 -4
-30 3 -12 9 -13 9 -2 -3 16 -19 15 -30 -4 -30 -8 0 -12 5 -9 10 3 6 1 10 -4
10 -6 0 -11 -4 -11 -9 0 -11 25 -32 32 -26 2 3 5 -1 5 -9 0 -12 -4 -12 -23 0
-23 16 -42 4 -28 -18 5 -7 3 -8 -6 -3 -9 6 -12 4 -8 -7 4 -8 2 -21 -4 -29 -8
-11 -9 -11 -4 3 3 10 1 20 -4 23 -6 4 -10 -1 -10 -9 0 -9 -5 -15 -11 -14 -6 2
-14 -3 -17 -11 -3 -9 0 -11 9 -6 8 5 10 4 6 0 -12 -14 -41 -15 -49 -2 -5 8 -8
6 -8 -5 0 -10 5 -18 12 -18 6 0 8 -3 5 -6 -4 -4 -13 -1 -22 6 -17 14 -21 0 -4
-17 15 -15 -30 -5 -50 11 -12 9 -12 8 -1 -11 8 -12 20 -19 29 -16 14 4 14 3 1
-5 -10 -8 -18 -8 -27 0 -19 16 -16 2 5 -18 16 -17 16 -17 0 -11 -11 4 -21 0
-27 -10 -7 -14 -12 -15 -24 -5 -11 9 -17 10 -22 2 -3 -6 -11 -7 -17 -4 -6 4
-6 -1 1 -14 6 -11 16 -23 23 -25 7 -3 3 -5 -9 -3 -12 1 -26 6 -30 11 -5 4 -1
4 7 0 10 -5 8 -1 -4 13 -20 23 -35 30 -19 10 13 -18 11 -37 -5 -47 -7 -4 -14
-15 -16 -24 -3 -26 -36 -56 -54 -50 -11 5 -13 3 -7 -8 4 -8 5 -11 0 -7 -4 4
-13 0 -20 -9 -10 -13 -13 -14 -20 -2 -5 8 -5 11 0 7 4 -4 17 4 28 18 14 18 22
22 27 14 5 -8 10 -9 14 -2 4 6 -3 16 -14 22 -11 6 -20 7 -19 3 3 -20 -2 -27
-12 -13 -8 12 -9 11 -7 -5 2 -13 -2 -20 -14 -19 -13 1 -15 -6 -12 -35 4 -35 4
-36 -10 -11 -8 14 -12 29 -9 34 4 5 1 6 -5 2 -6 -4 -8 -14 -5 -23 4 -10 2 -14
-5 -9 -6 3 -13 2 -16 -3 -4 -5 -1 -13 5 -17 7 -4 9 -3 6 3 -3 5 0 10 7 10 7 0
13 -6 13 -12 0 -7 -14 -11 -34 -9 -18 1 -31 -2 -28 -6 7 -11 -24 -22 -37 -13
-7 4 -8 1 -4 -6 5 -7 14 -10 22 -7 7 3 16 0 20 -6 5 -7 2 -8 -6 -3 -9 6 -12 4
-8 -7 4 -8 0 -15 -8 -15 -7 0 -11 4 -8 9 3 4 2 8 -3 9 -4 0 -15 2 -24 4 -13 2
-16 -4 -15 -26 1 -16 -4 -31 -12 -34 -7 -2 -10 -9 -7 -15 3 -5 0 -7 -8 -4 -10
3 -19 -5 -26 -23 -8 -20 -10 -21 -7 -6 2 13 -1 26 -6 30 -7 3 -8 1 -4 -5 4 -7
2 -12 -4 -12 -6 0 -8 -5 -4 -12 5 -9 2 -8 -9 1 -20 16 -30 11 -21 -13 3 -9 11
-13 17 -9 5 3 7 1 3 -5 -4 -6 -17 -8 -34 -3 -15 4 -40 6 -57 4 l-30 -3 25 15
c23 15 23 15 3 10 -14 -4 -23 -2 -23 4 0 10 14 15 33 12 4 0 7 4 7 10 0 6 -9
8 -20 4 -22 -7 -26 5 -8 23 7 7 8 12 4 12 -5 0 -2 8 5 18 11 14 11 15 -1 5
-21 -19 -26 -16 -24 17 1 17 -3 30 -9 31 -7 0 -3 4 8 9 17 7 17 9 3 9 -12 1
-18 9 -18 27 0 14 -5 34 -10 44 -8 16 -8 18 5 14 8 -3 13 -10 10 -14 -3 -4 3
-14 13 -21 15 -12 16 -12 6 1 -6 8 -10 23 -9 32 2 10 0 17 -3 17 -18 -3 -35 2
-29 7 3 4 2 16 -4 28 -9 19 -8 19 10 -3 12 -13 21 -19 21 -14 0 5 -8 18 -18
29 -10 11 -17 25 -14 32 2 6 0 12 -5 12 -6 0 -10 7 -10 15 0 8 5 11 10 8 5 -3
7 0 5 8 -3 8 -10 13 -16 12 -6 -2 -9 4 -6 12 4 9 0 23 -7 32 -10 12 -10 15 -1
9 6 -4 12 -2 12 3 0 6 -4 11 -9 11 -15 0 -22 33 -10 44 8 7 10 7 6 1 -3 -6 -2
-17 2 -24 5 -7 8 5 7 28 0 23 -5 41 -9 41 -4 0 -7 -6 -5 -12 2 -7 -2 -13 -7
-13 -6 0 -9 4 -7 9 2 5 -3 4 -11 -3 -10 -8 -17 -8 -20 -1 -3 6 -4 5 -3 -2 2
-7 9 -12 15 -11 6 2 11 -2 11 -7 0 -14 -23 -13 -38 2 -8 8 -8 17 0 32 8 16 8
18 -1 10 -14 -13 -24 -57 -10 -49 5 4 9 -1 9 -10 0 -12 5 -15 18 -11 14 5 14
4 -2 -9 -11 -8 -25 -15 -30 -15 -6 0 -5 4 3 9 9 6 10 11 2 15 -10 6 -15 -6
-12 -26 2 -12 -13 -9 -29 5 -12 10 -12 9 -1 -6 9 -11 21 -15 35 -12 16 5 18 4
7 -4 -12 -8 -12 -12 -2 -25 9 -11 10 -16 2 -16 -6 0 -11 4 -11 9 0 5 -7 11
-15 15 -13 5 -14 2 -3 -17 15 -28 19 -49 7 -41 -5 3 -6 10 -3 16 5 7 2 8 -6 3
-8 -5 -11 -4 -7 2 4 6 -1 17 -11 24 -15 12 -16 12 -4 -2 10 -13 10 -18 -1 -28
-8 -6 -17 -9 -21 -6 -3 3 -1 -1 4 -7 9 -10 13 -10 19 1 7 10 10 10 16 1 8 -13
-13 -32 -26 -24 -4 2 -5 -6 -1 -18 3 -13 1 -19 -5 -15 -7 5 -9 -1 -6 -15 4
-19 3 -20 -7 -8 -9 13 -10 13 -8 -2 2 -9 -6 -24 -17 -33 -20 -16 -19 -16 3 -5
16 8 22 8 22 0 0 -6 5 -8 12 -4 7 5 8 3 2 -7 -5 -8 -9 -18 -9 -24 0 -5 -10 -9
-22 -9 -13 1 -20 -3 -16 -9 4 -6 0 -8 -10 -4 -9 3 -19 2 -22 -4 -4 -5 -3 -9 2
-8 20 3 34 -2 28 -11 -4 -6 -10 -8 -14 -6 -3 3 -8 -3 -9 -12 -4 -41 -9 -62
-15 -68 -4 -4 -7 -3 -7 3 0 5 -7 10 -16 10 -15 0 -15 -2 1 -13 9 -7 24 -10 33
-7 10 5 13 3 7 -6 -4 -7 -17 -11 -29 -9 -16 3 -22 0 -21 -11 1 -21 11 -28 22
-17 5 5 2 6 -6 1 -9 -5 -12 -4 -7 3 4 6 14 8 23 5 11 -4 13 -8 5 -11 -7 -2
-10 -8 -6 -13 3 -5 0 -8 -7 -7 -6 2 -14 -3 -17 -11 -3 -9 0 -11 9 -6 8 5 5 -1
-5 -13 -17 -20 -15 -27 7 -23 5 1 6 -3 2 -9 -5 -8 -11 -8 -21 1 -7 6 -11 15
-8 20 3 5 0 9 -6 9 -8 0 -9 -7 -5 -17 12 -31 13 -48 3 -60 -6 -7 -14 -10 -19
-7 -8 5 -13 -16 -10 -42 1 -6 -6 -17 -14 -24 -12 -10 -18 -10 -32 1 -16 13
-17 12 -4 -3 7 -10 10 -18 5 -18 -5 0 0 -7 10 -15 11 -8 14 -15 7 -15 -7 0 -9
-5 -5 -12 4 -7 3 -10 -1 -5 -5 4 -17 0 -27 -10 -17 -16 -17 -17 -1 -37 15 -17
15 -19 1 -8 -18 14 -27 6 -23 -20 2 -11 -2 -15 -11 -11 -9 3 -14 0 -12 -7 2
-7 -5 -14 -14 -15 -15 -3 -13 2 7 29 14 18 22 36 17 41 -4 5 0 5 8 0 8 -5 12
-5 8 0 -4 4 -2 15 4 24 10 12 7 12 -8 -2 -11 -9 -23 -14 -27 -11 -4 4 -5 -3
-2 -14 2 -11 -5 -30 -16 -43 -10 -12 -16 -26 -13 -30 7 -13 -10 -11 -23 2 -8
8 -13 8 -18 0 -3 -6 -1 -10 5 -9 15 4 22 -30 8 -38 -6 -4 -5 -10 3 -15 11 -7
11 -9 1 -9 -7 0 -10 -4 -7 -10 3 -5 1 -10 -5 -10 -6 0 -8 -5 -4 -12 6 -10 5
-10 -8 -1 -8 7 -19 9 -23 5 -5 -4 -5 -2 -1 5 3 6 2 14 -3 17 -4 3 -8 -2 -8
-12 0 -47 -3 -55 -16 -44 -8 7 -18 7 -27 2 -13 -8 -13 -11 -1 -22 10 -9 12
-10 7 -1 -5 9 -2 11 10 6 11 -4 13 -8 6 -11 -7 -2 -10 -7 -8 -11 3 -4 -1 -8
-9 -8 -8 0 -12 4 -10 8 3 4 -2 9 -10 12 -11 5 -12 1 -5 -19 7 -17 7 -23 0 -19
-6 3 -10 0 -10 -7 0 -8 -3 -9 -8 -3 -9 13 -62 17 -62 4 0 -6 5 -7 11 -3 8 5 8
1 0 -14 -6 -12 -17 -24 -24 -28 -9 -6 -9 -5 0 8 11 12 9 18 -10 34 -12 10 -16
12 -9 4 17 -20 15 -26 -8 -27 -13 -1 -18 2 -14 9 4 6 3 8 -4 4 -6 -3 -9 -19
-7 -35 3 -19 -2 -34 -13 -43 -16 -12 -16 -11 -2 6 12 15 12 20 2 23 -6 3 -9
10 -6 15 4 7 2 8 -4 4 -6 -4 -9 -12 -6 -20 3 -7 -2 -13 -10 -13 -8 0 -12 6 -9
16 5 13 3 13 -7 4 -16 -15 -5 -47 12 -37 7 4 9 3 5 -1 -10 -12 -38 -15 -31 -4
5 9 -9 13 -35 10 -8 -2 -10 2 -5 10 4 8 3 10 -4 5 -17 -10 -3 -36 16 -29 14 4
15 3 2 -5 -9 -7 -18 -8 -26 -1 -9 7 -14 4 -19 -10 -3 -12 -11 -21 -16 -21 -6
0 -7 5 -4 10 10 17 -11 11 -37 -10 -14 -10 -29 -16 -33 -12 -5 4 -5 1 -1 -6 4
-7 11 -10 15 -8 4 3 13 1 20 -4 9 -5 2 -7 -18 -6 -28 1 -35 7 -33 27 1 4 -8 5
-18 2 -14 -4 -20 0 -20 11 0 9 -3 15 -7 14 -5 -1 -28 11 -53 27 -25 16 -54 34
-65 40 -11 6 -20 16 -20 22 0 6 -4 15 -9 20 -5 5 -6 3 -2 -4 4 -8 1 -13 -8
-13 -9 0 -16 5 -16 10 0 6 -6 10 -14 10 -7 0 -21 10 -30 23 -9 12 -14 16 -11
10 8 -17 6 -17 -46 9 -24 12 -47 21 -51 20 -5 -1 -8 3 -8 8 0 6 -9 10 -21 10
-11 0 -17 4 -14 10 3 6 -1 7 -9 4 -9 -3 -16 -1 -16 5 0 6 -7 8 -15 5 -8 -4
-17 1 -21 9 -3 9 -13 13 -26 9 -16 -4 -19 -2 -13 8 5 8 4 11 -3 6 -6 -3 -30 0
-54 9 -24 8 -51 15 -62 15 -12 0 -16 5 -13 15 4 8 2 17 -4 20 -5 4 -8 1 -7 -7
3 -13 -42 -13 -52 1 -3 3 -14 6 -25 5 -11 0 -36 5 -55 11 -19 7 -43 11 -52 9
-10 -1 -18 2 -18 7 0 5 5 9 12 9 6 0 8 3 5 6 -4 4 -13 1 -22 -6 -9 -7 -22 -9
-32 -5 -10 5 -25 7 -35 6 -9 -1 -19 2 -22 8 -3 5 -15 7 -26 4 -13 -3 -20 0
-20 8 0 11 -2 11 -10 -1 -9 -13 -10 -13 -10 0 0 13 -1 13 -10 0 -5 -8 -10 -10
-10 -4 0 6 -17 10 -40 10 -29 -1 -40 3 -41 14 0 10 -2 11 -6 3 -2 -7 -14 -13
-24 -13 -11 0 -17 5 -14 10 4 6 3 9 -2 8 -4 -1 -19 4 -33 11 l-25 12 25 -20
25 -20 -42 2 c-24 1 -43 5 -43 8 0 4 -19 6 -42 5 -31 -1 -42 3 -40 12 1 8 -2
11 -8 7 -6 -3 -8 -10 -5 -14 2 -5 -6 -8 -20 -8 -14 0 -22 4 -18 10 4 6 1 7 -8
1 -8 -5 -54 -10 -104 -10 -49 -1 -92 -3 -95 -4 -3 -1 -17 -3 -33 -5 -19 -3
-25 0 -20 8 5 9 3 9 -8 0 -12 -10 -18 -10 -29 0 -10 10 -11 9 -5 -2 6 -11 4
-13 -8 -8 -9 3 -19 2 -22 -4 -9 -13 -27 0 -19 14 3 7 -2 3 -10 -7 -9 -11 -16
-16 -16 -12 0 5 -6 3 -14 -3 -10 -9 -16 -9 -21 -1 -4 7 -11 8 -18 2 -7 -5 -22
-8 -34 -7 -13 1 -23 -3 -23 -8 0 -5 -8 -3 -17 4 -9 8 -14 9 -10 3 4 -7 0 -15
-9 -18 -24 -9 -36 -7 -28 5 3 6 -6 3 -22 -7 -21 -14 -26 -15 -19 -4 7 12 4 11
-17 -2 -20 -13 -28 -14 -31 -5 -4 9 -6 9 -6 -1 -1 -7 -5 -10 -11 -7 -5 3 -10
2 -10 -3 0 -5 -6 -9 -12 -10 -46 -5 -71 -12 -84 -23 -13 -10 -17 -10 -25 2 -7
12 -9 11 -9 -2 0 -10 -11 -19 -25 -21 -13 -3 -22 -1 -19 3 3 5 -2 6 -10 3 -9
-3 -13 -11 -9 -17 4 -6 0 -8 -9 -5 -8 4 -30 -2 -47 -13 -37 -22 -45 -24 -36
-6 4 6 0 4 -8 -5 -16 -20 -42 -25 -31 -6 4 7 3 8 -5 4 -6 -4 -9 -11 -6 -16 3
-4 -2 -10 -9 -13 -9 -4 -17 1 -19 11 -3 12 -5 11 -6 -5 -1 -20 -13 -29 -24
-20 -2 1 -11 -6 -21 -16 -10 -9 -22 -15 -27 -12 -5 4 -9 1 -9 -5 0 -6 -4 -8
-10 -5 -5 3 -10 1 -10 -5 0 -6 -4 -8 -10 -5 -5 3 -10 1 -10 -6 0 -7 -3 -9 -7
-6 -3 4 -12 -1 -20 -11 -10 -11 -12 -12 -8 -2 4 10 2 9 -8 -2 -8 -10 -17 -15
-20 -11 -4 3 -7 1 -7 -6 0 -7 -4 -10 -9 -7 -5 3 -12 -1 -15 -10 -3 -8 -10 -12
-16 -9 -5 3 -10 1 -10 -5 0 -5 -16 -18 -35 -27 -19 -9 -35 -20 -35 -25 0 -4
-6 -8 -14 -8 -8 0 -16 -3 -18 -8 -7 -15 -61 -52 -69 -46 -5 3 -8 0 -7 -8 2 -7
-5 -12 -14 -12 -10 1 -14 -4 -11 -12 3 -8 1 -14 -3 -14 -5 0 -30 -20 -57 -44
-26 -25 -47 -42 -47 -38 0 3 -9 -4 -21 -16 -21 -23 -44 -20 -35 4 7 19 -12 28
-30 13 -12 -10 -13 -9 -8 5 4 11 14 16 25 13 11 -3 17 -1 13 4 -8 13 10 11 26
-3 12 -11 12 -10 1 5 -8 10 -21 15 -32 12 -9 -3 -21 0 -25 6 -4 7 -3 9 2 6 6
-3 16 -1 24 4 13 9 13 10 0 8 -28 -3 -41 1 -35 10 3 5 1 12 -4 15 -5 4 -13 1
-17 -5 -4 -8 -3 -9 4 -5 7 4 12 5 12 2 0 -3 -9 -10 -21 -16 -19 -10 -20 -10
-10 9 15 27 15 27 -21 52 -17 13 -28 17 -23 9 6 -10 4 -12 -7 -8 -9 4 -15 0
-15 -8 0 -16 9 -18 23 -4 6 6 15 6 24 -1 12 -8 11 -9 -5 -7 -13 2 -19 -2 -17
-11 3 -12 -1 -11 -20 1 -15 10 -23 25 -22 41 1 15 -3 24 -7 21 -5 -3 -9 0 -9
7 0 7 -3 9 -6 6 -4 -4 -1 -13 6 -22 9 -11 9 -15 1 -15 -7 0 -9 -4 -6 -10 3 -6
-1 -7 -10 -3 -10 3 -12 8 -7 12 7 4 5 14 -4 26 -15 20 -15 20 -30 1 -14 -19
-14 -19 -14 1 0 15 -6 21 -25 21 -16 0 -22 -5 -18 -12 4 -6 -1 -5 -10 3 -16
13 -16 16 -2 37 23 35 18 39 -10 7 l-25 -28 9 27 c9 25 8 26 -15 22 -14 -3
-23 -1 -20 4 2 4 1 14 -3 21 -6 10 -10 9 -14 -4 -5 -11 -3 -14 6 -9 8 5 7 2
-2 -9 -17 -22 -21 -21 -16 3 2 12 -3 21 -16 25 -21 7 -25 25 -8 42 8 8 8 13 0
18 -6 3 -10 1 -9 -5 5 -21 -38 -21 -57 0 -15 16 -16 23 -6 33 10 9 11 8 5 -6
-4 -12 -2 -17 7 -15 8 2 13 -2 12 -9 -2 -7 4 -10 12 -7 8 4 15 10 15 16 0 5
-5 6 -11 3 -6 -4 -13 3 -16 14 -4 16 -11 20 -26 15 -17 -5 -19 -3 -15 25 2 17
2 29 0 26 -9 -9 -32 17 -25 28 3 6 1 7 -6 3 -8 -6 -9 -12 -2 -20 6 -7 8 -16 4
-19 -3 -4 -1 -7 5 -7 7 0 12 -8 12 -17 -1 -16 -2 -16 -13 2 -6 11 -12 25 -12
30 -1 6 -7 9 -14 7 -7 -1 -10 2 -7 7 4 5 -1 14 -10 19 -14 8 -15 10 -1 15 11
4 14 14 11 29 -3 13 -6 29 -6 35 -1 10 -4 10 -17 0 -12 -10 -14 -9 -7 7 7 20
7 20 -16 1 -13 -11 -17 -13 -10 -5 16 19 15 30 -4 30 -9 0 -12 -5 -8 -12 4 -6
3 -8 -3 -5 -5 3 -9 22 -8 41 1 20 -2 36 -7 36 -5 0 -6 5 -3 10 6 9 -8 14 -27
11 -5 0 -8 4 -8 9 0 6 11 8 23 6 15 -2 24 1 24 9 0 7 -12 12 -30 11 -24 -1
-31 4 -33 22 -2 12 0 22 4 22 17 0 21 -14 9 -28 -10 -13 -9 -14 3 -10 8 2 16
14 16 26 1 12 -3 19 -7 16 -5 -3 -9 0 -9 6 0 7 -9 9 -22 6 -13 -3 -17 -3 -10
0 6 3 12 14 12 25 0 13 5 17 18 12 14 -5 13 -3 -3 10 -23 19 -35 21 -35 6 0
-5 4 -7 10 -4 6 3 7 -1 3 -10 -9 -25 -24 4 -16 32 3 14 1 23 -7 23 -6 0 -9 -4
-5 -9 3 -5 0 -13 -7 -17 -7 -4 -10 -4 -6 1 4 4 3 16 -2 25 -8 15 -6 17 10 13
24 -6 26 9 4 28 -14 12 -14 14 1 25 10 8 12 14 6 19 -6 3 -11 2 -11 -2 0 -5
-12 -9 -27 -10 -16 -1 -23 1 -16 3 7 3 9 12 6 20 -3 7 -10 11 -16 7 -6 -3 -7
-1 -3 6 4 6 11 9 15 7 4 -3 7 5 7 17 -1 14 4 21 14 19 10 -1 8 3 -6 16 -11 9
-18 24 -16 32 3 8 -4 5 -14 -8 l-20 -24 -2 29 c-1 22 0 25 9 13 9 -13 10 -13
6 1 -3 9 0 22 6 29 9 10 9 11 0 6 -10 -6 -44 40 -43 59 1 35 -1 40 -10 25 -6
-9 -5 -17 3 -22 8 -5 8 -8 1 -8 -19 0 -23 11 -13 37 5 14 5 31 1 40 -8 13 -10
13 -15 -1 -4 -10 -3 -15 3 -11 6 3 10 1 10 -4 0 -6 -4 -11 -8 -11 -17 0 -21
13 -11 37 8 21 7 24 -6 19 -8 -3 -15 -2 -16 2 0 4 -2 15 -4 25 -2 12 1 17 10
13 7 -2 16 1 18 8 4 10 -1 12 -15 8 -16 -4 -19 -2 -13 9 7 11 5 11 -10 -1 -17
-14 -18 -13 -12 3 4 11 3 16 -3 12 -6 -4 -10 -12 -9 -18 3 -26 -2 -38 -13 -31
-7 5 -8 3 -3 -6 6 -10 13 -7 27 11 l19 24 -12 -25 c-7 -14 -12 -29 -11 -33 1
-4 -12 -1 -30 8 -24 11 -28 12 -16 2 17 -13 16 -15 -5 -26 -17 -9 -18 -10 -2
-6 35 11 37 10 41 -15 2 -14 1 -20 -3 -15 -12 15 -40 17 -49 4 -4 -7 -3 -9 4
-5 16 10 45 -23 32 -38 -5 -7 -6 -17 -2 -21 4 -5 1 -5 -5 -1 -16 9 -17 -6 -3
-20 7 -7 6 -11 -4 -11 -8 0 -13 3 -11 7 2 4 -2 7 -10 7 -10 0 -11 -5 -4 -18
12 -23 12 -32 -2 -23 -8 4 -8 0 0 -15 7 -11 8 -21 4 -21 -4 0 2 -7 13 -15 16
-13 16 -14 1 -9 -13 5 -16 2 -11 -12 5 -15 4 -16 -4 -4 -6 8 -9 17 -7 20 2 3
-4 11 -15 17 -16 11 -16 8 4 -30 22 -44 35 -94 18 -68 -13 18 -20 3 -18 -41 0
-20 -1 -36 -4 -36 -18 1 -23 -4 -10 -12 8 -5 11 -12 7 -17 -11 -10 -28 18 -19
32 7 12 -30 -15 -40 -30 -4 -5 -4 -13 -1 -19 3 -5 1 -6 -6 -2 -6 4 -9 12 -5
17 3 5 2 15 -3 22 -5 7 -9 26 -8 44 1 29 -1 31 -28 27 -26 -3 -27 -2 -15 13
11 14 11 16 -3 11 -9 -3 -22 -2 -30 3 -12 8 -11 12 6 25 l20 16 -20 -4 c-13
-2 -19 2 -17 12 3 12 1 12 -15 -1 -28 -24 -54 -13 -48 19 2 15 0 34 -5 42 -8
12 -10 12 -10 1 0 -8 -3 -11 -7 -8 -3 4 -15 0 -25 -10 -11 -9 -18 -11 -18 -5
0 7 5 12 11 12 8 0 7 5 -1 15 -7 9 -10 18 -6 22 3 3 6 1 6 -6 0 -7 5 -9 12 -5
7 5 8 2 3 -7 -5 -8 -4 -10 0 -6 16 14 14 36 -3 30 -11 -5 -13 -3 -7 8 8 12 6
12 -8 0 -10 -8 -20 -11 -24 -7 -4 3 2 13 13 21 16 13 16 14 2 9 -10 -3 -18 -2
-18 3 0 14 -46 33 -70 28 -11 -2 -18 -1 -16 4 3 4 1 13 -5 21 -6 11 -9 12 -9
2 0 -7 -5 -10 -11 -6 -16 10 8 23 37 19 13 -1 21 2 18 7 -3 5 -11 8 -17 7 -28
-3 -47 2 -47 12 0 6 9 9 20 6 11 -3 17 -1 14 4 -3 6 -21 8 -39 5 -34 -6 -47 3
-51 32 -4 23 -13 26 -31 11 -16 -13 -17 -12 -5 3 11 14 9 19 -16 37 -16 11
-33 17 -37 13 -5 -4 -5 -2 -1 5 10 17 -34 85 -51 79 -11 -4 -13 -1 -8 14 4 12
2 20 -5 20 -6 0 -8 -5 -4 -12 4 -7 3 -8 -5 -4 -6 4 -9 11 -6 15 2 5 -1 16 -8
25 -12 16 -13 16 -13 -3 0 -11 4 -17 8 -15 4 3 5 -2 2 -10 -3 -9 -10 -16 -16
-16 -5 0 -6 5 -3 10 3 6 2 10 -4 10 -5 0 -12 -6 -14 -12 -4 -10 -6 -10 -6 0
-1 7 6 15 14 18 12 5 12 10 3 27 -7 12 -11 25 -10 29 1 4 -5 5 -13 2 -8 -4
-15 -1 -15 6 0 7 -6 10 -14 7 -22 -9 -27 5 -8 21 11 9 8 9 -10 -2 -16 -9 -28
-12 -28 -7 0 6 7 14 17 19 14 9 14 10 -5 16 -14 5 -19 13 -16 24 5 14 4 15 -5
2 -8 -11 -7 -18 4 -26 12 -9 12 -13 -3 -27 -13 -14 -14 -17 -2 -18 8 -1 19 -1
23 0 5 1 6 -3 2 -8 -3 -6 3 -8 15 -6 17 3 19 1 10 -15 -13 -25 -13 -33 2 -24
7 5 8 3 3 -6 -6 -10 -11 -9 -21 6 -18 26 -67 74 -76 74 -5 0 -8 5 -8 11 0 5 4
7 10 4 6 -3 7 1 3 10 -4 12 -8 13 -13 5 -5 -9 -13 -7 -28 6 -12 10 -18 22 -15
27 3 6 2 7 -4 4 -5 -3 -26 12 -46 34 -20 22 -37 36 -37 32 0 -4 -7 2 -16 13
-9 10 -7 3 4 -16z m272 -185 c0 5 5 4 12 -3 13 -13 -5 -42 -26 -42 -8 0 -7 3
1 8 8 5 9 13 3 22 -6 8 -10 20 -10 25 0 6 5 3 10 -5 5 -8 10 -11 10 -5z m6710
-50 c0 -2 -6 -8 -13 -14 -10 -8 -14 -7 -14 2 0 8 6 14 14 14 7 0 13 -1 13 -2z
m-6637 -38 c3 -8 0 -14 -7 -14 -7 0 -13 6 -13 14 0 7 4 13 8 13 4 0 9 -6 12
-13z m28 -20 c-10 -9 -11 -8 -5 6 3 10 9 15 12 12 3 -3 0 -11 -7 -18z m6540 6
c13 -16 12 -17 -3 -4 -17 13 -22 21 -14 21 2 0 10 -8 17 -17z m-6517 -53 c-5
-5 -10 3 -11 18 -1 22 0 24 9 8 6 -10 6 -22 2 -26z m56 -40 c8 -5 11 -10 5
-10 -5 0 -17 5 -25 10 -8 5 -10 10 -5 10 6 0 17 -5 25 -10z m6215 -80 c-3 -5
-1 -10 6 -10 7 0 10 -3 6 -6 -9 -9 -28 6 -22 17 4 5 8 9 11 9 3 0 2 -4 -1 -10z
m-6118 -22 c-3 -8 -6 -5 -6 6 -1 11 2 17 5 13 3 -3 4 -12 1 -19z m5407 0 c-3
-4 -11 -5 -19 -1 -21 7 -19 12 4 10 11 0 18 -5 15 -9z m-29 -34 c-8 -9 -15
-20 -15 -25 0 -5 -4 -9 -10 -9 -5 0 -2 13 8 29 9 16 20 27 24 25 5 -3 1 -12
-7 -20z m715 2 c0 -3 -4 -8 -10 -11 -5 -3 -10 -1 -10 4 0 6 5 11 10 11 6 0 10
-2 10 -4z m-5966 -45 c3 -5 -3 -11 -15 -14 -17 -5 -18 -3 -7 11 11 13 11 15
-4 9 -18 -6 -33 5 -21 16 6 7 39 -8 47 -22z m506 -1 c0 -5 0 -12 0 -15 0 -14
-13 -8 -16 8 -1 9 2 17 7 17 5 0 9 -4 9 -10z m25 -40 c3 -5 -1 -10 -10 -10 -9
0 -13 5 -10 10 3 6 8 10 10 10 2 0 7 -4 10 -10z m4675 -35 c0 -8 -2 -15 -4
-15 -2 0 -6 7 -10 15 -3 8 -1 15 4 15 6 0 10 -7 10 -15z m-5129 -22 c-6 -11
-11 -13 -11 -5 0 7 -5 10 -12 6 -7 -4 -8 -3 -4 5 4 6 12 9 17 6 5 -4 9 -1 9 6
0 7 3 10 6 6 3 -3 1 -14 -5 -24z m5122 -10 c-7 -3 -11 -10 -9 -16 1 -7 1 -8
-2 -4 -2 4 -10 3 -18 -4 -12 -10 -13 -9 -8 5 3 9 10 16 16 16 5 0 6 4 3 10 -4
6 1 7 11 3 10 -4 13 -8 7 -10z m-4635 -23 c-8 -13 -14 -15 -23 -7 -14 14 3 37
22 30 9 -4 9 -9 1 -23z m5179 15 c0 -8 -4 -12 -9 -9 -5 3 -6 10 -3 15 9 13 12
11 12 -6z m-5595 -33 c-7 -2 -10 -7 -8 -11 3 -4 -1 -8 -8 -8 -11 0 -12 4 -3
18 6 10 16 15 21 12 6 -4 5 -8 -2 -11z m5524 -19 c-10 -10 -19 5 -10 18 6 11
8 11 12 0 2 -7 1 -15 -2 -18z m-5496 -28 c0 -12 -19 -12 -23 0 -4 9 -1 12 9 8
7 -3 14 -7 14 -8z m5495 -5 c-3 -5 -12 -10 -18 -10 -7 0 -6 4 3 10 19 12 23
12 15 0z m-5439 -23 c1 -9 -3 -20 -8 -24 -6 -3 -8 -1 -4 5 3 6 2 13 -4 17 -14
9 -13 28 2 23 6 -2 12 -12 14 -21z m-36 9 c0 -2 -7 -7 -16 -10 -8 -3 -12 -2
-9 4 6 10 25 14 25 6z m397 -3 c-4 -3 1 -16 10 -27 14 -15 14 -18 2 -8 -9 6
-18 9 -22 6 -3 -3 -4 2 -2 13 5 24 4 23 12 23 3 0 3 -3 0 -7z m4940 -72 c16
-9 15 -10 -7 -8 -13 1 -25 -3 -25 -10 0 -6 -4 -15 -9 -20 -5 -4 -6 -3 -2 4 3
6 2 14 -4 18 -5 3 -10 0 -10 -7 0 -10 -3 -9 -10 2 -20 33 24 46 67 21z m-5240
-6 c0 -8 -4 -12 -9 -9 -5 3 -6 10 -3 15 9 13 12 11 12 -6z m484 -304 c0 -3 2
-14 4 -24 2 -9 -1 -15 -6 -11 -5 3 -7 10 -4 15 6 8 -9 13 -28 10 -5 -1 -6 2
-3 7 6 10 36 12 37 3z m4169 -22 c0 -5 -4 -7 -10 -4 -10 6 -14 -8 -10 -35 1
-8 -1 -12 -5 -8 -12 11 -12 43 -1 50 16 11 26 10 26 -3z m-76 -97 c3 -5 -1 -9
-9 -9 -8 0 -15 4 -15 9 0 4 4 8 9 8 6 0 12 -4 15 -8z m-204 -122 c0 -5 -8 -10
-17 -10 -15 0 -16 2 -3 10 19 12 20 12 20 0z m-3726 -26 c3 -8 2 -12 -4 -9 -6
3 -10 10 -10 16 0 14 7 11 14 -7z m3536 -89 c0 -1 -12 -2 -26 -2 -17 0 -22 2
-13 7 10 7 39 3 39 -5z m-3335 -4 c3 -5 2 -12 -3 -15 -5 -3 -9 1 -9 9 0 17 3
19 12 6z m130 -61 c-3 -5 -12 -10 -18 -10 -7 0 -6 4 3 10 19 12 23 12 15 0z"/>
<path d="M7895 9889 c-3 -4 2 -6 10 -5 21 3 28 13 10 13 -9 0 -18 -4 -20 -8z"/>
<path d="M8870 10658 c0 -4 4 -8 9 -8 6 0 12 4 15 8 3 5 -1 9 -9 9 -8 0 -15
-4 -15 -9z"/>
<path d="M8853 10635 c4 -9 2 -25 -5 -34 -12 -14 -11 -14 5 -2 20 16 22 37 5
47 -8 5 -9 2 -5 -11z"/>
<path d="M8798 10633 c7 -3 16 -2 19 1 4 3 -2 6 -13 5 -11 0 -14 -3 -6 -6z"/>
<path d="M2015 10600 c3 -5 8 -10 11 -10 2 0 4 5 4 10 0 6 -5 10 -11 10 -5 0
-7 -4 -4 -10z"/>
<path d="M2053 10575 c0 -8 4 -12 9 -9 5 3 6 10 3 15 -9 13 -12 11 -12 -6z"/>
<path d="M7758 10483 c7 -3 16 -2 19 1 4 3 -2 6 -13 5 -11 0 -14 -3 -6 -6z"/>
<path d="M8587 10478 c2 -5 10 -8 18 -8 8 0 16 3 18 8 3 4 -5 7 -18 7 -13 0
-21 -3 -18 -7z"/>
<path d="M2160 10441 c0 -6 4 -13 10 -16 6 -3 7 1 4 9 -7 18 -14 21 -14 7z"/>
<path d="M2194 10438 c3 -10 1 -20 -5 -23 -5 -4 -7 -11 -4 -16 10 -15 32 -10
40 9 5 14 4 15 -6 5 -17 -17 -35 -17 -21 0 8 9 8 17 0 27 -8 12 -9 12 -4 -2z"/>
<path d="M8575 10440 c3 -5 8 -10 11 -10 2 0 4 5 4 10 0 6 -5 10 -11 10 -5 0
-7 -4 -4 -10z"/>
<path d="M8553 10408 c-2 -18 0 -20 7 -8 12 18 13 30 2 30 -4 0 -9 -10 -9 -22z"/>
<path d="M2815 10389 c-4 -6 -5 -12 -2 -15 2 -3 7 2 10 11 7 17 1 20 -8 4z"/>
<path d="M2225 10382 c-6 -6 4 -22 15 -22 4 0 10 6 13 13 5 13 -17 20 -28 9z"/>
<path d="M7816 10373 c-6 -14 -5 -15 5 -6 7 7 10 15 7 18 -3 3 -9 -2 -12 -12z"/>
<path d="M2285 10340 c-4 -6 -10 -8 -15 -5 -4 3 -7 -3 -6 -12 2 -9 9 -19 16
-21 8 -3 11 1 7 10 -3 9 0 21 6 27 6 6 8 11 5 11 -4 0 -10 -5 -13 -10z"/>
<path d="M7820 10346 c0 -2 8 -10 18 -17 15 -13 16 -12 3 4 -13 16 -21 21 -21
13z"/>
<path d="M8427 10303 c3 -7 6 -13 8 -13 1 0 7 6 13 13 8 10 6 13 -7 13 -11 0
-17 -6 -14 -13z"/>
<path d="M7841 10296 c-9 -11 -9 -16 1 -22 7 -4 10 -4 6 1 -4 4 -3 14 3 22 6
7 9 13 6 13 -2 0 -10 -6 -16 -14z"/>
<path d="M2350 10241 c0 -5 5 -13 10 -16 6 -3 10 -2 10 4 0 5 -4 13 -10 16 -5
3 -10 2 -10 -4z"/>
<path d="M8319 10245 c-1 -3 -2 -10 -3 -15 0 -6 -6 -14 -12 -18 -9 -5 -8 -10
2 -19 8 -8 15 -9 19 -3 3 6 0 10 -7 10 -9 0 -9 3 -2 8 6 4 11 15 11 25 0 16
-5 24 -8 12z"/>
<path d="M2770 10224 c-10 -11 -10 -14 -1 -14 7 0 9 -5 5 -12 -4 -7 2 -4 14 6
26 23 26 22 8 29 -8 3 -20 -1 -26 -9z"/>
<path d="M7616 10161 c-3 -5 0 -11 7 -14 8 -3 14 1 14 9 0 16 -13 19 -21 5z"/>
<path d="M2740 10126 c0 -2 8 -10 18 -17 15 -13 16 -12 3 4 -13 16 -21 21 -21
13z"/>
<path d="M7861 10117 c2 -1 13 -9 24 -17 19 -14 19 -14 6 3 -7 9 -18 17 -24
17 -6 0 -8 -1 -6 -3z"/>
<path d="M2527 10075 c-4 -9 -3 -14 2 -10 5 3 11 1 13 -5 2 -6 9 -1 16 10 7
12 8 20 2 20 -5 0 -10 -6 -10 -12 0 -10 -2 -10 -9 0 -7 11 -9 10 -14 -3z"/>
<path d="M2740 10030 c-8 -5 -11 -13 -6 -17 5 -4 11 -2 13 5 3 6 10 9 15 6 7
-4 8 -2 4 4 -9 14 -7 14 -26 2z"/>
<path d="M8049 10013 c-1 -5 -1 -11 0 -15 0 -5 -6 -8 -15 -8 -9 0 -12 5 -8 12
4 7 3 8 -4 4 -18 -11 -3 -37 16 -27 14 8 27 41 16 41 -2 0 -5 -3 -5 -7z"/>
<path d="M3005 10000 c-3 -5 -1 -10 4 -10 6 0 11 5 11 10 0 6 -2 10 -4 10 -3
0 -8 -4 -11 -10z"/>
<path d="M2734 9992 c3 -6 -2 -13 -11 -15 -16 -4 -16 -5 -1 -6 21 -1 32 15 17
25 -7 4 -9 3 -5 -4z"/>
<path d="M2716 9946 c10 -8 21 -12 24 -10 5 6 -21 24 -34 24 -6 0 -1 -6 10
-14z"/>
<path d="M7496 9937 c3 -10 9 -15 12 -12 3 3 0 11 -7 18 -10 9 -11 8 -5 -6z"/>
<path d="M2686 9931 c-12 -5 -15 -10 -9 -14 6 -4 16 0 23 8 14 17 13 17 -14 6z"/>
<path d="M7470 9906 c0 -2 7 -7 16 -10 8 -3 12 -2 9 4 -6 10 -25 14 -25 6z"/>
<path d="M7484 9864 c-10 -8 -13 -13 -6 -9 6 3 12 2 12 -4 0 -5 -6 -12 -12
-15 -7 -2 -3 -4 9 -2 24 2 44 16 25 16 -7 0 -12 5 -12 11 0 5 5 7 12 3 7 -4 8
-3 4 4 -9 15 -8 15 -32 -4z"/>
<path d="M7470 9809 c0 -5 -4 -8 -9 -5 -4 3 -8 -3 -7 -14 2 -29 21 -25 23 5 1
14 0 25 -3 25 -2 0 -4 -5 -4 -11z"/>
<path d="M7423 9711 c1 -15 4 -17 14 -9 7 5 10 14 7 19 -10 16 -23 9 -21 -10z"/>
<path d="M7392 9704 c-7 -8 -8 -14 -3 -14 10 0 25 19 20 25 -2 1 -10 -3 -17
-11z"/>
<path d="M3148 9683 c-8 -15 -3 -36 10 -41 8 -2 11 4 9 17 -4 24 -13 36 -19
24z"/>
<path d="M3231 9548 c-1 -10 -6 -18 -12 -18 -5 0 -7 -5 -3 -11 9 -15 28 16 20
34 -2 7 -5 4 -5 -5z"/>
<path d="M6210 9556 c0 -2 8 -10 18 -17 15 -13 16 -12 3 4 -13 16 -21 21 -21
13z"/>
<path d="M7290 9539 c0 -5 5 -7 10 -4 6 3 10 8 10 11 0 2 -4 4 -10 4 -5 0 -10
-5 -10 -11z"/>
<path d="M7290 9505 c0 -8 2 -15 4 -15 2 0 6 7 10 15 3 8 1 15 -4 15 -6 0 -10
-7 -10 -15z"/>
<path d="M7235 9480 c-3 -5 -1 -10 4 -10 6 0 11 5 11 10 0 6 -2 10 -4 10 -3 0
-8 -4 -11 -10z"/>
<path d="M3280 9460 c0 -5 5 -10 11 -10 5 0 7 5 4 10 -3 6 -8 10 -11 10 -2 0
-4 -4 -4 -10z"/>
<path d="M7170 9410 c0 -7 -8 -9 -22 -4 -13 3 -20 3 -16 -1 11 -11 58 -15 58
-5 0 5 -4 12 -10 15 -5 3 -10 1 -10 -5z"/>
<path d="M3364 9359 c-4 -7 -3 -9 4 -5 5 3 13 0 15 -6 4 -9 6 -10 6 -1 1 17
-16 25 -25 12z"/>
<path d="M3475 9260 c-2 -4 7 -6 21 -4 35 3 41 12 9 12 -14 0 -27 -4 -30 -8z"/>
<path d="M3783 9058 c-2 -16 1 -17 13 -8 17 15 17 17 1 23 -8 3 -14 -3 -14
-15z"/>
<path d="M3866 7932 c-2 -4 -2 -16 0 -27 2 -11 6 -38 8 -60 22 -177 84 -365
156 -472 40 -60 137 -150 149 -138 2 3 9 1 15 -4 42 -35 266 -51 396 -30 30 5
69 11 85 13 47 7 169 38 178 46 6 6 -55 98 -98 147 -5 6 -21 26 -35 45 -42 56
-226 235 -249 243 -11 3 -21 10 -21 14 0 7 -161 91 -215 111 -160 62 -362 123
-369 112z"/>
<path d="M6736 7933 c-3 -4 -17 -8 -29 -10 -63 -9 -354 -114 -432 -155 -56
-29 -137 -80 -156 -98 -8 -8 -35 -34 -60 -57 -78 -73 -125 -126 -208 -233 -80
-104 -93 -126 -68 -127 6 -1 38 -8 70 -16 32 -9 75 -19 95 -22 21 -3 49 -8 62
-11 14 -3 77 -8 141 -11 330 -15 469 100 564 467 25 97 30 122 41 223 6 52 -1
69 -20 50z"/>
<path d="M7281 7045 c-2 -19 -453 -466 -671 -665 -19 -17 -53 -48 -75 -69 -22
-20 -96 -86 -165 -146 -69 -60 -127 -111 -130 -114 -3 -3 -27 -24 -55 -46 -27
-22 -56 -45 -63 -52 -8 -8 -30 -26 -50 -41 -21 -15 -39 -30 -42 -33 -5 -7
-150 -121 -194 -154 -15 -11 -37 -28 -49 -39 -12 -10 -42 -32 -67 -49 -25 -17
-50 -36 -57 -42 -35 -30 -43 -35 -53 -35 -5 0 -10 -4 -10 -10 0 -5 -7 -10 -15
-10 -8 0 -15 -4 -15 -10 0 -5 -6 -10 -14 -10 -8 0 -16 -4 -18 -8 -4 -11 -186
-132 -198 -132 -5 0 -10 -3 -12 -7 -3 -8 -105 -73 -114 -73 -2 0 -23 -12 -45
-26 -43 -27 -261 -137 -389 -197 -41 -19 -118 -55 -170 -79 -52 -25 -133 -64
-180 -86 -310 -146 -596 -286 -614 -300 -6 -5 -36 -22 -66 -38 -64 -33 -242
-148 -285 -184 -62 -51 -232 -228 -280 -290 -27 -36 -52 -67 -55 -70 -7 -7
-82 -120 -95 -145 -27 -48 -69 -121 -79 -134 -5 -7 -11 -20 -12 -29 -2 -8 -9
-19 -16 -23 -7 -5 -10 -9 -5 -9 4 0 -4 -21 -17 -47 -31 -61 -87 -208 -102
-268 -2 -5 -10 -35 -19 -65 -8 -30 -17 -66 -20 -80 -2 -14 -9 -50 -15 -80 -17
-89 -24 -177 -23 -310 0 -133 5 -182 28 -310 12 -66 42 -172 72 -260 127 -370
291 -667 465 -840 46 -46 153 -120 174 -120 7 0 27 19 45 43 19 23 36 44 39
47 3 3 39 46 80 95 154 185 363 373 445 398 36 11 86 18 95 12 7 -5 -45 -173
-64 -203 -4 -7 -5 -12 -2 -12 3 0 1 -11 -4 -25 -5 -14 -12 -36 -14 -48 -3 -12
-14 -56 -25 -97 -11 -41 -23 -91 -26 -110 -3 -19 -8 -42 -10 -50 -5 -21 -16
-87 -21 -135 -3 -22 -7 -58 -9 -80 -10 -89 -4 -319 10 -397 3 -16 7 -38 9 -50
6 -41 17 -82 39 -148 12 -36 20 -68 19 -73 -1 -4 2 -7 7 -7 5 0 15 -15 21 -34
6 -19 24 -53 41 -75 16 -23 29 -46 29 -52 0 -22 18 3 55 73 110 214 220 328
317 328 92 0 269 -93 315 -165 13 -19 23 -37 23 -40 0 -20 147 -205 218 -276
114 -112 276 -227 298 -211 5 4 23 34 40 67 61 115 69 130 74 135 14 14 238
483 246 515 3 14 10 25 15 25 5 0 9 6 9 14 0 8 13 43 29 78 35 75 160 386 197
490 15 40 31 84 37 98 5 14 11 30 13 35 1 6 14 44 29 85 27 78 33 95 36 108 1
4 15 42 31 85 15 42 25 77 23 77 -3 0 -1 10 6 21 9 18 79 242 94 299 2 8 13
49 25 90 33 117 79 285 86 315 10 49 15 68 47 205 19 80 40 170 46 200 11 55
16 80 26 123 15 67 34 179 32 186 -1 5 37 53 84 107 105 122 234 283 280 349
19 28 37 52 42 53 4 2 7 9 7 15 0 7 14 28 30 47 16 19 30 39 30 43 0 5 8 21
19 35 35 51 138 247 185 352 59 133 153 425 171 529 3 19 7 37 9 40 2 3 7 24
10 46 13 81 16 101 23 130 6 31 8 42 17 110 28 216 41 452 37 665 -1 19 -1 42
0 50 0 14 -5 91 -16 240 -7 98 -14 174 -21 220 -3 25 -7 59 -9 75 -1 17 -7 55
-13 85 -6 30 -13 69 -16 85 -12 73 -25 143 -36 185 -6 25 -13 59 -15 77 -3 17
-9 43 -15 57 -5 14 -7 26 -5 26 2 0 0 12 -6 28 -6 15 -13 41 -16 57 -3 17 -9
33 -15 36 -5 3 -9 9 -8 13 1 4 -1 12 -3 19 -3 6 -6 7 -6 2z"/>
</g>
</svg>
